<?xml version="1.0" encoding="UTF-8"?>
<svg version="1.1" xmlns="http://www.w3.org/2000/svg" width="500" height="500">
<path d="M0 0 C165 0 330 0 500 0 C500 165 500 330 500 500 C335 500 170 500 0 500 C0 335 0 170 0 0 Z " fill="#FEFEFE" transform="translate(0,0)"/>
<path d="M0 0 C0.85715607 0.00424484 1.71431213 0.00848969 2.59744263 0.01286316 C5.31789414 0.02956989 8.03758732 0.06720656 10.7578125 0.10546875 C12.60936425 0.12052597 14.46092769 0.13421255 16.3125 0.14648438 C20.83622683 0.1794471 25.35939137 0.23117338 29.8828125 0.29296875 C29.26099594 0.99179672 29.26099594 0.99179672 28.62661743 1.70474243 C28.08419403 2.32376434 27.54177063 2.94278625 26.98291016 3.58056641 C26.44461578 4.19082672 25.90632141 4.80108704 25.35171509 5.42984009 C23.66371219 7.42698718 23.66371219 7.42698718 22.28125 10.69140625 C19.35710859 13.86319481 18.42552568 13.73087575 14.234375 13.95703125 C11.99220635 13.97297084 9.74966559 13.95882256 7.5078125 13.91796875 C-2.68324181 13.45503536 -2.68324181 13.45503536 -11.1171875 18.29296875 C-13.14438394 21.51372817 -13.37399998 24.05208239 -13.3918457 27.82421875 C-13.40137772 28.93216797 -13.41090973 30.04011719 -13.42073059 31.18164062 C-13.41981918 32.37337891 -13.41890778 33.56511719 -13.41796875 34.79296875 C-13.42225388 36.02080078 -13.426539 37.24863281 -13.43095398 38.51367188 C-13.4366964 41.10936873 -13.4371982 43.70508167 -13.43286133 46.30078125 C-13.4296997 50.27762189 -13.45316877 54.25372 -13.47851562 58.23046875 C-13.4807884 60.75130114 -13.48149222 63.27213554 -13.48046875 65.79296875 C-13.4896785 66.98470703 -13.49888824 68.17644531 -13.50837708 69.40429688 C-13.50214828 70.51224609 -13.49591949 71.62019531 -13.48950195 72.76171875 C-13.49013138 73.73560547 -13.4907608 74.70949219 -13.4914093 75.71289062 C-13.05678519 78.70941346 -12.02240618 79.99739079 -10.1171875 82.29296875 C-10.1171875 82.95296875 -10.1171875 83.61296875 -10.1171875 84.29296875 C-4.95725149 86.43070768 -0.94470514 86.35519323 4.48046875 85.96875 C34.88824716 84.4954091 34.88824716 84.4954091 46.14672852 92.7409668 C55.41368988 101.36987786 57.73599482 109.4499909 58.389328 121.68894958 C58.63091335 129.08165089 58.46632768 136.48228224 57.9259491 143.8596344 C57.71021935 147.4134714 57.69449703 149.80624568 58.99365234 153.1640625 C62.09161616 156.65517707 64.84191167 158.08036463 69.53317261 158.56906128 C72.85041753 158.70776361 76.15251444 158.7348788 79.47265625 158.7265625 C81.29948692 158.73442528 81.29948692 158.73442528 83.16322327 158.7424469 C85.73437743 158.74885978 88.30556096 158.74753966 90.87670898 158.73901367 C94.80310489 158.73050604 98.72804465 158.75927491 102.65429688 158.79101562 C105.15624957 158.79262786 107.65820482 158.79204969 110.16015625 158.7890625 C111.91512672 158.80591347 111.91512672 158.80591347 113.70555115 158.82310486 C120.30256051 158.7669094 124.57155581 158.34044786 129.8828125 154.29296875 C133.37826075 149.04979637 132.91304133 144.1632912 132.63671875 138.0546875 C131.77289303 108.3615257 131.77289303 108.3615257 139.47827148 100.15356445 C142.19034673 97.80106839 144.93030791 95.63163 147.97583008 93.72631836 C150.08418912 92.31529439 150.08418912 92.31529439 151.56567383 89.66479492 C154.53762791 86.62269884 156.16748703 86.70341542 160.2807312 86.65097046 C161.1162149 86.66431427 161.95169861 86.67765808 162.8125 86.69140625 C163.68045197 86.68339996 164.54840393 86.67539368 165.44265747 86.66714478 C168.21485093 86.64407611 170.9855796 86.65353254 173.7578125 86.66796875 C176.52263072 86.67182283 179.28679843 86.66831137 182.05154419 86.64736938 C183.76999059 86.6353328 185.48861956 86.63786267 187.20700073 86.65707397 C192.13551413 86.63419404 195.73001569 86.23973935 199.8828125 83.29296875 C204.02914115 77.88066501 203.33298561 71.39993403 203.31640625 64.88671875 C203.3216481 63.68865601 203.32688995 62.49059326 203.33229065 61.25622559 C203.33870252 58.72795383 203.33738473 56.19965222 203.32885742 53.67138672 C203.32034215 49.80642575 203.34913218 45.9429403 203.38085938 42.078125 C203.38247139 39.61849003 203.38189385 37.15885244 203.37890625 34.69921875 C203.39575722 32.96931702 203.39575722 32.96931702 203.41294861 31.20446777 C203.35896312 24.98167721 203.25051941 20.91776921 198.8828125 16.29296875 C195.73656829 14.0262152 193.04474449 14.0849802 189.234375 14.16015625 C188.14640625 14.15757812 187.0584375 14.155 185.9375 14.15234375 C183.65862634 14.16272586 181.37973487 14.19642942 179.1015625 14.25390625 C170.93779838 14.17670753 170.93779838 14.17670753 167.89746094 11.62988281 C166.36972448 9.58553906 165.14630912 7.5078847 163.8828125 5.29296875 C162.5715278 3.60889987 161.24250929 1.93819827 159.8828125 0.29296875 C165.11140475 0.16836892 170.33911269 0.07816377 175.56884766 0.01831055 C177.34374059 -0.00666752 179.11853243 -0.04066251 180.89306641 -0.08422852 C201.44247376 -0.57570281 201.44247376 -0.57570281 210.00341797 7.2253418 C216.9449476 14.16966968 218.21648506 22.23721682 218.32530212 31.77233887 C218.32236649 32.94445923 218.31943085 34.11657959 218.31640625 35.32421875 C218.3216481 36.55531372 218.32688995 37.78640869 218.33229065 39.05480957 C218.33868807 41.64672087 218.33740358 44.2386613 218.32885742 46.83056641 C218.32033874 50.78080184 218.34915837 54.72959424 218.38085938 58.6796875 C218.38247146 61.20703082 218.38189373 63.73437668 218.37890625 66.26171875 C218.39014023 67.43383911 218.40137421 68.60595947 218.41294861 69.81359863 C218.3532085 76.89159894 217.35581656 82.10840273 213.8828125 88.29296875 C213.3465625 89.30359375 212.8103125 90.31421875 212.2578125 91.35546875 C211.8040625 91.99484375 211.3503125 92.63421875 210.8828125 93.29296875 C210.2228125 93.29296875 209.5628125 93.29296875 208.8828125 93.29296875 C208.8828125 93.95296875 208.8828125 94.61296875 208.8828125 95.29296875 C200.37081271 100.50439719 193.59383085 101.58902754 183.69921875 101.48828125 C182.64371323 101.48545135 181.5882077 101.48262146 180.50071716 101.47970581 C177.14879746 101.4685629 173.79715066 101.44346899 170.4453125 101.41796875 C168.16471742 101.40793135 165.88411812 101.39880683 163.60351562 101.390625 C158.02985572 101.36864287 152.45635361 101.33522412 146.8828125 101.29296875 C146.89169495 101.92666382 146.90057739 102.56035889 146.909729 103.21325684 C146.9984931 109.83218327 147.05866729 116.45093952 147.10253906 123.0703125 C147.12260545 125.53783033 147.14986494 128.0053009 147.18457031 130.47265625 C147.23330556 134.02746268 147.25583189 137.58163819 147.2734375 141.13671875 C147.29408264 142.23286499 147.31472778 143.32901123 147.33599854 144.45837402 C147.33825976 152.24573298 145.9651095 157.12324336 141.27734375 163.46484375 C140.49423828 164.24601562 140.49423828 164.24601562 139.6953125 165.04296875 C139.18613281 165.5740625 138.67695313 166.10515625 138.15234375 166.65234375 C129.93210422 172.59468558 121.96775795 172.89080348 112.06640625 172.82421875 C110.64111568 172.82691955 109.21582693 172.83080683 107.7905426 172.83581543 C104.81761971 172.8416811 101.84518067 172.83324233 98.87231445 172.81445312 C95.08061766 172.79164348 91.29005245 172.80481664 87.49839687 172.82874298 C84.55991739 172.84326343 81.62170204 172.83856704 78.68321419 172.82823181 C77.28590825 172.82558279 75.88857754 172.82876937 74.49130058 172.83815002 C66.51159298 172.87998726 60.68665988 172.63091336 53.8828125 168.29296875 C52.9959375 167.73609375 52.1090625 167.17921875 51.1953125 166.60546875 C47.440212 162.85036825 43.05318719 156.48440808 42.76255798 151.04037476 C42.76477859 150.10327667 42.76699921 149.16617859 42.76928711 148.20068359 C42.76940041 146.60926041 42.76940041 146.60926041 42.76951599 144.98568726 C42.77467728 143.83669952 42.77983856 142.68771179 42.78515625 141.50390625 C42.7865712 140.33034576 42.78798615 139.15678528 42.78944397 137.94766235 C42.79505561 134.1877389 42.80761012 130.4278743 42.8203125 126.66796875 C42.825326 124.12369877 42.82988917 121.57942787 42.83398438 119.03515625 C42.84502882 112.78774022 42.86177832 106.54035869 42.8828125 100.29296875 C41.9322699 100.30629242 41.9322699 100.30629242 40.96252441 100.31988525 C34.34359798 100.40864935 27.72484173 100.46882354 21.10546875 100.51269531 C18.63795092 100.5327617 16.17048035 100.56002119 13.703125 100.59472656 C10.14831857 100.64346181 6.59414306 100.66598814 3.0390625 100.68359375 C1.39484314 100.71456146 1.39484314 100.71456146 -0.28259277 100.74615479 C-8.20289531 100.74845461 -13.4622631 99.48377576 -19.578125 94.14453125 C-20.20976562 93.40976563 -20.84140625 92.675 -21.4921875 91.91796875 C-22.13929688 91.18835938 -22.78640625 90.45875 -23.453125 89.70703125 C-26.6472278 85.07333282 -27.36891546 80.51401681 -27.42358398 74.97143555 C-27.43957138 73.73963058 -27.45555878 72.50782562 -27.47203064 71.23869324 C-27.47739334 69.91984634 -27.48275604 68.60099945 -27.48828125 67.2421875 C-27.49726148 65.85984711 -27.50638355 64.47750763 -27.51564026 63.09516907 C-27.5320855 60.20282643 -27.53982207 57.31059891 -27.54272461 54.41821289 C-27.54810175 50.73294484 -27.58577113 47.04877635 -27.63146877 43.36381817 C-27.66138277 40.50940615 -27.66845125 37.65525429 -27.66945076 34.80069923 C-27.67563918 32.78838511 -27.70503273 30.7761848 -27.73497009 28.76408386 C-27.6925189 20.09422753 -26.48796471 13.80348888 -20.33226013 7.45097351 C-14.07189623 1.643563 -8.38089783 -0.1578483 0 0 Z " fill="#09415F" transform="translate(155.1171875,139.70703125)"/>
<path d="M0 0 C4.28625956 3.44764356 8.05561814 7.3621679 11.875 11.3125 C12.87279494 12.31470021 13.87182037 13.31568977 14.875 14.3125 C15.24625 13.4771875 15.24625 13.4771875 15.625 12.625 C20.98418193 2.71051342 30.54511008 -2.24420336 40.875 -5.6875 C58.87593398 -6.66765557 58.87593398 -6.66765557 65.875 -2.6875 C66.68195313 -2.27371094 67.48890625 -1.85992187 68.3203125 -1.43359375 C77.9590179 3.84611503 83.8467267 11.10865069 87.875 21.3125 C89.04777975 25.6621768 89.0930973 30.02165908 89.125 34.5 C89.1559375 35.55670898 89.1559375 35.55670898 89.1875 36.63476562 C89.23394473 43.04994376 87.86780471 46.66981765 85.875 53.3125 C71.355 53.3125 56.835 53.3125 41.875 53.3125 C39.895 49.0225 37.915 44.7325 35.875 40.3125 C34.225 40.3125 32.575 40.3125 30.875 40.3125 C26.33652502 48.66650704 23.0950178 57.39382526 19.875 66.3125 C19.215 66.3125 18.555 66.3125 17.875 66.3125 C10.70016636 42.90657139 10.70016636 42.90657139 7.6015625 31.859375 C7.07033094 29.99720847 6.48736191 28.14958574 5.875 26.3125 C4.39 25.8175 4.39 25.8175 2.875 25.3125 C-0.97126688 27.87667792 -1.41964297 30.58208564 -2.625 34.8125 C-2.82480469 35.4828125 -3.02460938 36.153125 -3.23046875 36.84375 C-3.6329492 38.19731482 -4.03093097 39.55222715 -4.4239502 40.90856934 C-5.1715951 43.47227664 -5.93645585 46.03039781 -6.70507812 48.58789062 C-7.10539246 49.92043884 -7.10539246 49.92043884 -7.51379395 51.27990723 C-7.71549194 51.95066284 -7.91718994 52.62141846 -8.125 53.3125 C-15.06670022 53.36308729 -22.00835315 53.39818579 -28.95019531 53.42236328 C-31.31316911 53.43243924 -33.67613039 53.44610029 -36.0390625 53.46337891 C-39.42971888 53.48755724 -42.82021084 53.49896699 -46.2109375 53.5078125 C-47.27243011 53.51813507 -48.33392273 53.52845764 -49.42758179 53.53909302 C-50.40844757 53.53924408 -51.38931335 53.53939514 -52.39990234 53.53955078 C-53.26594086 53.543992 -54.13197937 53.54843323 -55.02426147 53.55300903 C-57.125 53.3125 -57.125 53.3125 -59.125 51.3125 C-63.35686029 39.15755327 -63.19917343 26.85660922 -57.76953125 15.13671875 C-53.26741562 7.40505699 -47.13367651 1.30062636 -39.125 -2.6875 C-37.990625 -3.285625 -36.85625 -3.88375 -35.6875 -4.5 C-23.74442538 -8.60690708 -10.71570661 -5.78648157 0 0 Z " fill="#16B7BE" transform="translate(236.125,145.6875)"/>
<path d="M0 0 C0.66 0 1.32 0 2 0 C2.19110352 0.72477539 2.38220703 1.44955078 2.57910156 2.19628906 C3.46543947 5.54858755 4.35769038 8.89928633 5.25 12.25 C5.55035156 13.38953125 5.85070312 14.5290625 6.16015625 15.703125 C8.51932454 28.17360817 8.51932454 28.17360817 14 39 C16.41482413 39.50059916 16.41482413 39.50059916 19 39 C22.90274744 33.88423646 24.41032936 27.25171659 26.39453125 21.21679688 C26.68714844 20.34990234 26.97976563 19.48300781 27.28125 18.58984375 C27.66893555 17.41216431 27.66893555 17.41216431 28.06445312 16.21069336 C29.07734978 13.8172228 30.36573893 12.01045055 32 10 C32.70044434 11.70458374 32.70044434 11.70458374 33.41503906 13.44360352 C34.74156895 15.74452345 35.40674339 16.79773654 37.94909668 17.66452026 C40.44013991 17.90822967 42.85662197 17.94306289 45.359375 17.90234375 C46.26375305 17.91463516 47.1681311 17.92692657 48.09991455 17.93959045 C50.98409966 17.97134521 53.86573447 17.95503718 56.75 17.9375 C58.70705504 17.95060745 60.66409179 17.96684651 62.62109375 17.98632812 C67.41460742 18.02720462 72.20639538 18.02498646 77 18 C74.16268988 24.02442561 69.6536989 28.3463011 65 33 C62.65024731 35.65215565 60.31190004 38.31319071 57.98828125 40.98828125 C57.33214844 41.65214844 56.67601562 42.31601563 56 43 C55.34 43 54.68 43 54 43 C53.74347656 43.59554687 53.48695313 44.19109375 53.22265625 44.8046875 C51.89030313 47.19696371 50.56631395 48.42728199 48.4375 50.125 C45.78974334 52.20903634 45.78974334 52.20903634 44 55 C43.34 55 42.68 55 42 55 C41.34 56.32 40.68 57.64 40 59 C39.34 59 38.68 59 38 59 C38 59.66 38 60.32 38 61 C36.5390625 62.5078125 36.5390625 62.5078125 34.625 64.125 C33.99851562 64.66382813 33.37203125 65.20265625 32.7265625 65.7578125 C31 67 31 67 29 67 C29 67.66 29 68.32 29 69 C26.76658661 70.9383786 24.52763358 72.76186519 22.1875 74.5625 C21.54490234 75.06974609 20.90230469 75.57699219 20.24023438 76.09960938 C17.45070406 78.27052883 15.39023304 79.86992232 12 81 C-0.62349143 73.96212424 -11.91093189 62.40127014 -21.890625 52.08203125 C-23.82341424 49.9591128 -23.82341424 49.9591128 -26 49 C-26 48.34 -26 47.68 -26 47 C-26.66 47 -27.32 47 -28 47 C-28 46.34 -28 45.68 -28 45 C-28.66 45 -29.32 45 -30 45 C-30 44.34 -30 43.68 -30 43 C-30.66 43 -31.32 43 -32 43 C-33.55078125 41.4609375 -33.55078125 41.4609375 -35.3125 39.375 C-35.93511719 38.64410156 -36.55773437 37.91320312 -37.19921875 37.16015625 C-38.68093139 35.38274391 -40.15512158 33.59968551 -41.625 31.8125 C-43.94580922 28.97256652 -43.94580922 28.97256652 -46.5625 26.5 C-49 24 -49 24 -53 18 C-37.16 18 -21.32 18 -5 18 C-4.34 15.03 -3.68 12.06 -3 9 C-2.49222842 7.30199321 -1.95929798 5.61071693 -1.375 3.9375 C-1.11460937 3.18339844 -0.85421875 2.42929688 -0.5859375 1.65234375 C-0.39257812 1.10707031 -0.19921875 0.56179687 0 0 Z " fill="#17B6BE" transform="translate(238,190)"/>
<path d="M0 0 C1.38330742 -0.00202454 2.7666138 -0.00493913 4.1499176 -0.00869751 C7.04056012 -0.01310453 9.93092333 -0.00674367 12.8215332 0.00732422 C16.50774906 0.02439944 20.19330866 0.01457576 23.87950039 -0.00339317 C26.73388009 -0.01428902 29.58810696 -0.01075802 32.44249153 -0.0030098 C34.45641129 -0.00006376 36.47033724 -0.00910045 38.48423767 -0.0184021 C47.53911645 0.05075763 54.5803679 0.80105264 61.56640625 7.0859375 C62.283125 7.70855469 62.99984375 8.33117187 63.73828125 8.97265625 C69.60109063 15.81627397 70.3837316 22.07824564 70.20703125 30.8984375 C70.20137146 31.97472412 70.19571167 33.05101074 70.18988037 34.15991211 C70.16761859 37.57322015 70.11743977 40.98545059 70.06640625 44.3984375 C70.04632814 46.72264101 70.02807967 49.0468611 70.01171875 51.37109375 C69.96778734 57.04723819 69.90097759 62.72276083 69.81640625 68.3984375 C68.21177176 68.08834866 66.60771394 67.77527463 65.00390625 67.4609375 C63.66392578 67.19990234 63.66392578 67.19990234 62.296875 66.93359375 C59.81640625 66.3984375 59.81640625 66.3984375 56.81640625 65.3984375 C56.80706055 64.1930835 56.79771484 62.98772949 56.78808594 61.74584961 C56.74806109 57.25215386 56.68226776 52.75913375 56.60888672 48.26586914 C56.5807494 46.32520256 56.55949899 44.38442293 56.54541016 42.44360352 C56.52388007 39.64541038 56.47717907 36.84856621 56.42578125 34.05078125 C56.42455261 33.1900853 56.42332397 32.32938934 56.42205811 31.44261169 C56.28249519 25.63660176 55.35814689 22.07278033 51.81640625 17.3984375 C46.40237947 13.19933357 39.77213316 13.9484484 33.2265625 13.96484375 C32.00867538 13.9596019 30.79078827 13.95436005 29.53599548 13.94895935 C26.96484132 13.94254647 24.39365779 13.94386659 21.82250977 13.95239258 C17.89611386 13.96090021 13.9711741 13.93213134 10.04492188 13.90039062 C7.54296918 13.89877839 5.04101393 13.89935656 2.5390625 13.90234375 C0.78409203 13.88549278 0.78409203 13.88549278 -1.0063324 13.86830139 C-7.57795352 13.92428059 -11.93514941 14.28290729 -17.18359375 18.3984375 C-18.95782555 21.25638255 -19.44351322 23.46054073 -19.50244141 26.79980469 C-19.5223111 27.6603949 -19.54218079 28.52098511 -19.56265259 29.40765381 C-19.5799794 30.78754486 -19.5799794 30.78754486 -19.59765625 32.1953125 C-19.6170224 33.14408264 -19.63638855 34.09285278 -19.65634155 35.07037354 C-19.71605034 38.09630383 -19.76248808 41.12227234 -19.80859375 44.1484375 C-19.84678152 46.20183937 -19.88583372 48.25522536 -19.92578125 50.30859375 C-20.02174483 55.33841246 -20.10580821 60.36830615 -20.18359375 65.3984375 C-21.95308987 65.90314947 -23.72424598 66.40204435 -25.49609375 66.8984375 C-26.48222656 67.176875 -27.46835938 67.4553125 -28.484375 67.7421875 C-31.18359375 68.3984375 -31.18359375 68.3984375 -34.18359375 68.3984375 C-34.31113502 61.74581545 -34.39825366 55.09351258 -34.45825195 48.43994141 C-34.48328284 46.18005593 -34.51731813 43.92025048 -34.56079102 41.66064453 C-34.62194608 38.39856131 -34.64991877 35.13755505 -34.671875 31.875 C-34.69768143 30.87667145 -34.72348785 29.8783429 -34.75007629 28.84976196 C-34.75323184 20.82634159 -32.72361986 14.22688204 -27.1933136 8.2460022 C-18.8093265 0.30532104 -11.16991342 -0.05151146 0 0 Z " fill="#0B405C" transform="translate(232.18359375,67.6015625)"/>
<path d="M0 0 C3.63 0 7.26 0 11 0 C11.95940322 3.49970984 12.91755378 6.99975474 13.875 10.5 C14.14441406 11.48226563 14.41382813 12.46453125 14.69140625 13.4765625 C15.46751337 16.31597878 16.23599985 19.15730414 17 22 C17.21172852 22.77988281 17.42345703 23.55976563 17.64160156 24.36328125 C18.52763612 27.7324003 19 30.48517665 19 34 C19.66 34 20.32 34 21 34 C21.10441406 32.88882813 21.20882812 31.77765625 21.31640625 30.6328125 C21.95533477 25.53261333 23.40759815 20.76921838 24.9375 15.875 C25.20240234 15.00746094 25.46730469 14.13992188 25.74023438 13.24609375 C27.1007325 8.81012715 28.50888659 4.39410232 30 0 C33.63 0 37.26 0 41 0 C45.05822559 10.45773518 47.99831459 21.20085025 51 32 C53.39378679 25.9980856 55.08457859 20.03466264 56.5625 13.75 C56.9759669 11.99372574 57.39378113 10.23846798 57.81640625 8.484375 C57.99631104 7.71834961 58.17621582 6.95232422 58.36157227 6.16308594 C59 4 59 4 61 0 C64.63 0 68.26 0 72 0 C71.57589844 1.39734375 71.15179688 2.7946875 70.71484375 4.234375 C68.9198712 10.21831868 67.23639398 16.23126149 65.5625 22.25 C63.0723315 31.17579024 60.55926983 40.093741 58 49 C53.71 49 49.42 49 45 49 C43.6844784 44.77175177 42.37246903 40.54246839 41.0625 36.3125 C40.68931641 35.11431641 40.31613281 33.91613281 39.93164062 32.68164062 C39.57392578 31.52470703 39.21621094 30.36777344 38.84765625 29.17578125 C38.3527771 27.58117065 38.3527771 27.58117065 37.84790039 25.9543457 C37.08943943 23.31163447 36.49172055 20.70337033 36 18 C33.70334017 24.83344633 31.49096986 31.69054184 29.3125 38.5625 C28.99216797 39.57119141 28.67183594 40.57988281 28.34179688 41.61914062 C27.56062611 44.07924559 26.78023201 46.53959715 26 49 C21.71 49 17.42 49 13 49 C12.71278076 47.99211426 12.42556152 46.98422852 12.12963867 45.94580078 C11.05123036 42.162237 9.97191119 38.37893353 8.89233398 34.59570312 C8.42757199 32.96654088 7.96304831 31.33731062 7.4987793 29.70800781 C6.8266554 27.3494245 6.15364134 24.99109668 5.48046875 22.6328125 C5.26357391 21.87107727 5.04667908 21.10934204 4.82321167 20.32452393 C3.44661467 15.50607234 2.01224878 10.71067327 0.47387695 5.94091797 C0 4 0 4 0 0 Z " fill="#0B405E" transform="translate(42,358)"/>
<path d="M0 0 C3.96 0 7.92 0 12 0 C15.08276558 3.46573748 16.82093365 5.92884433 18.875 9.9375 C19.9127305 11.80152342 20.9517834 13.66481128 21.9921875 15.52734375 C22.42901855 16.35999756 22.86584961 17.19265137 23.31591797 18.05053711 C25.66404973 22.16300157 28.37315125 26.05972687 31 30 C31.33 20.1 31.66 10.2 32 0 C35.3 0 38.6 0 42 0 C42 16.17 42 32.34 42 49 C31 49 31 49 28.5703125 47.12890625 C28.09335937 46.28199219 27.61640625 45.43507813 27.125 44.5625 C26.58101563 43.64597656 26.03703125 42.72945313 25.4765625 41.78515625 C24.98929687 40.86605469 24.50203125 39.94695312 24 39 C23.57460938 38.23558594 23.14921875 37.47117187 22.7109375 36.68359375 C22.31132812 35.96300781 21.91171875 35.24242187 21.5 34.5 C18.69380365 29.44884657 15.31364431 24.73377759 12 20 C11.67 29.57 11.34 39.14 11 49 C7.37 49 3.74 49 0 49 C0 32.83 0 16.66 0 0 Z " fill="#134560" transform="translate(239,358)"/>
<path d="M0 0 C3.3 0 6.6 0 10 0 C10.01401855 1.45237061 10.01401855 1.45237061 10.02832031 2.93408203 C10.06836783 6.54635647 10.13416554 10.15779235 10.20751953 13.76953125 C10.23564413 15.3289915 10.25690089 16.88859204 10.27099609 18.44824219 C10.29254542 20.69799173 10.33925057 22.94606974 10.390625 25.1953125 C10.39185364 25.8861795 10.39308228 26.57704651 10.39434814 27.28884888 C10.54292846 32.26370941 11.8007209 35.21009579 15 39 C19.05288458 40.25270978 21.02674704 40.46546881 24.875 38.625 C26.8719664 37.17208818 26.8719664 37.17208818 28 36 C28.16003488 33.33573315 28.25942889 30.69439572 28.31640625 28.02734375 C28.33718735 27.22970108 28.35796844 26.43205841 28.37937927 25.61024475 C28.44496158 23.05275389 28.50379967 20.4951572 28.5625 17.9375 C28.60567699 16.20767118 28.64929101 14.47785321 28.69335938 12.74804688 C28.80065172 8.4988074 28.90189426 4.2494611 29 0 C32.63 0 36.26 0 40 0 C40.09948577 4.98041064 40.17175686 9.96023252 40.21972656 14.94140625 C40.2397406 16.63291511 40.26696073 18.32435567 40.30175781 20.015625 C40.35073065 22.45850554 40.37307033 24.90046511 40.390625 27.34375 C40.41127014 28.08991577 40.43191528 28.83608154 40.45318604 29.6048584 C40.45551881 35.16526729 39.05435373 39.33885033 36 44 C31.27498785 48.60385799 26.67249154 50.28699029 20.125 50.3125 C14.33527438 50.19173272 9.94868365 49.74369495 5.5390625 45.640625 C0.49987662 39.98974604 -0.29491607 34.98595604 -0.1953125 27.63671875 C-0.1924826 26.84473587 -0.18965271 26.05275299 -0.18673706 25.23677063 C-0.17558863 22.72019001 -0.15049422 20.20397211 -0.125 17.6875 C-0.11496329 15.97591662 -0.10583864 14.26432763 -0.09765625 12.55273438 C-0.07566681 8.36835094 -0.04117408 4.18423686 0 0 Z " fill="#143D53" transform="translate(380,358)"/>
<path d="M0 0 C10.89 0 21.78 0 33 0 C33 2.97 33 5.94 33 9 C25.74 9 18.48 9 11 9 C11 12.63 11 16.26 11 20 C17.27 20 23.54 20 30 20 C30 22.97 30 25.94 30 29 C23.73 29 17.46 29 11 29 C11 32.63 11 36.26 11 40 C18.26 40 25.52 40 33 40 C33 42.97 33 45.94 33 49 C22.11 49 11.22 49 0 49 C0 32.83 0 16.66 0 0 Z " fill="#08405E" transform="translate(120,358)"/>
<path d="M0 0 C10.56 0 21.12 0 32 0 C32 2.97 32 5.94 32 9 C24.74 9 17.48 9 10 9 C10 12.63 10 16.26 10 20 C16.27 20 22.54 20 29 20 C29 22.97 29 25.94 29 29 C22.73 29 16.46 29 10 29 C10 32.63 10 36.26 10 40 C17.26 40 24.52 40 32 40 C32 42.97 32 45.94 32 49 C21.44 49 10.88 49 0 49 C0 32.83 0 16.66 0 0 Z " fill="#08405E" transform="translate(292,358)"/>
<path d="M0 0 C4.24041769 -0.82688145 7.79731205 -1.11729997 12 0 C15.99472956 4.32157107 20 9.95374387 20 16 C20.66 16 21.32 16 22 16 C22.26941406 15.29488281 22.53882813 14.58976562 22.81640625 13.86328125 C24.92377248 8.76526328 27.11241682 3.98340389 31 0 C34.82891797 -0.93664391 38.14223558 -0.69063052 42 0 C40.08305188 5.86702303 36.26413329 10.68888977 32.72460938 15.67382812 C29.72521821 20.05578534 29.72521821 20.05578534 28.96875 25.20703125 C30.07852759 28.21267889 31.3892299 30.5982463 33.1875 33.25 C36.61622499 38.41433991 39.84174764 43.66683392 43 49 C38.87753087 49.54032362 35.10271981 49.76598094 31 49 C28.09431209 46.43615773 26.66853862 43.45407842 25 40 C23.69093857 37.65214684 22.34478173 35.32772601 21 33 C20.41734375 34.155 19.8346875 35.31 19.234375 36.5 C12.80079082 48.42644602 12.80079082 48.42644602 7.6640625 50.0625 C4.63323371 50.00490705 1.93932265 49.72725509 -1 49 C0.265461 45.55824694 1.72234472 42.72789492 3.85546875 39.75 C4.66467773 38.58984375 4.66467773 38.58984375 5.49023438 37.40625 C6.62565157 35.79654462 7.76896123 34.19237854 8.91992188 32.59375 C9.45552734 31.8203125 9.99113281 31.046875 10.54296875 30.25 C11.03821045 29.55390625 11.53345215 28.8578125 12.04370117 28.140625 C13.31495258 25.2949951 12.95961446 23.93601069 12 21 C10.80620213 18.67605545 10.80620213 18.67605545 9.27734375 16.42578125 C8.73916016 15.59369141 8.20097656 14.76160156 7.64648438 13.90429688 C7.08251953 13.04900391 6.51855469 12.19371094 5.9375 11.3125 C4.81764857 9.60285167 3.70155864 7.89073159 2.58984375 6.17578125 C2.09347412 5.42208252 1.59710449 4.66838379 1.08569336 3.8918457 C0 2 0 2 0 0 Z " fill="#0B405D" transform="translate(331,358)"/>
<path d="M0 0 C-0.72366315 3.34430737 -1.81715496 5.34262343 -4 8 C-4.639375 7.690625 -5.27875 7.38125 -5.9375 7.0625 C-9.8623974 5.7008009 -13.82998326 4.90629176 -18 5 C-18.99 5.66 -19.98 6.32 -21 7 C-21.06389493 9.40203144 -21.06389493 9.40203144 -20 12 C-17.56800607 13.41541447 -15.40109252 14.47437756 -12.8125 15.5 C-0.80078125 20.3984375 -0.80078125 20.3984375 2 26 C2.67086161 31.2423043 2.73250448 35.65350693 -0.3125 40.125 C-1.199375 41.07375 -2.08625 42.0225 -3 43 C-3.99 43 -4.98 43 -6 43 C-6 43.66 -6 44.32 -6 45 C-12.22109976 46.84108919 -19.93981958 47.19833397 -26 44.6875 C-28.52100636 43.26943392 -30.78787099 41.85818837 -33 40 C-31.8141763 36.62496331 -30.72426311 34.35277269 -28 32 C-23.26315789 33.84210526 -23.26315789 33.84210526 -21.125 35.125 C-18.00439322 36.40995573 -15.33414196 36.24248305 -12 36 C-11.01 35.34 -10.02 34.68 -9 34 C-8.74969023 31.41619823 -8.74969023 31.41619823 -9 29 C-13.18814138 26.8678553 -17.34091481 24.8492674 -21.6875 23.0625 C-25.70832454 21.23295527 -28.5344973 19.81755257 -31 16 C-31.91450151 11.06169185 -32.16391985 6.30400515 -29.85546875 1.734375 C-21.58800498 -8.64903597 -10.05512975 -5.87773764 0 0 Z " fill="#0E405B" transform="translate(460,362)"/>
<path d="M0 0 C3.63 0 7.26 0 11 0 C11 13.2 11 26.4 11 40 C17.93 40 24.86 40 32 40 C32 42.97 32 45.94 32 49 C21.44 49 10.88 49 0 49 C0 32.83 0 16.66 0 0 Z " fill="#0A3D5A" transform="translate(161,358)"/>
<path d="M0 0 C3.63 0 7.26 0 11 0 C11 13.2 11 26.4 11 40 C17.6 40 24.2 40 31 40 C31 42.97 31 45.94 31 49 C20.77 49 10.54 49 0 49 C0 32.83 0 16.66 0 0 Z " fill="#113F59" transform="translate(201,358)"/>
<path d="M0 0 C0.85715607 0.00424484 1.71431213 0.00848969 2.59744263 0.01286316 C5.31789414 0.02956989 8.03758732 0.06720656 10.7578125 0.10546875 C12.60936425 0.12052597 14.46092769 0.13421255 16.3125 0.14648438 C20.83622683 0.1794471 25.35939137 0.23117338 29.8828125 0.29296875 C29.26099594 0.99179672 29.26099594 0.99179672 28.62661743 1.70474243 C28.08419403 2.32376434 27.54177063 2.94278625 26.98291016 3.58056641 C26.44461578 4.19082672 25.90632141 4.80108704 25.35171509 5.42984009 C23.66371219 7.42698718 23.66371219 7.42698718 22.28125 10.69140625 C19.35710859 13.86319481 18.42552568 13.73087575 14.234375 13.95703125 C11.99220635 13.97297084 9.74966559 13.95882256 7.5078125 13.91796875 C-2.68324181 13.45503536 -2.68324181 13.45503536 -11.1171875 18.29296875 C-13.15924182 21.52806071 -13.36562011 24.06513595 -13.36010742 27.85595703 C-13.36318405 28.97036163 -13.36626068 30.08476624 -13.36943054 31.23294067 C-13.36224503 32.43095306 -13.35505951 33.62896545 -13.34765625 34.86328125 C-13.34719803 36.09585663 -13.34673981 37.32843201 -13.3462677 38.59835815 C-13.34247417 41.86915989 -13.32947539 45.13976667 -13.31280518 48.41052246 C-13.29933165 51.74243398 -13.30252948 55.07431221 -13.30273438 58.40625 C-13.2978197 60.93359576 -13.2919916 63.46093995 -13.28515625 65.98828125 C-13.28404343 67.1903421 -13.2829306 68.39240295 -13.28178406 69.63088989 C-13.27540421 70.73899017 -13.26902435 71.84709045 -13.26245117 72.98876953 C-13.25863937 73.96709747 -13.25482758 74.94542542 -13.25090027 75.95339966 C-13.27058839 78.31570806 -13.27058839 78.31570806 -12.1171875 80.29296875 C-13.7671875 79.96296875 -15.4171875 79.63296875 -17.1171875 79.29296875 C-16.7871875 58.50296875 -16.4571875 37.71296875 -16.1171875 16.29296875 C-15.4571875 16.29296875 -14.7971875 16.29296875 -14.1171875 16.29296875 C-14.4575 15.51953125 -14.4575 15.51953125 -14.8046875 14.73046875 C-15.28232472 11.00489843 -13.73008989 8.64780571 -12.1171875 5.29296875 C-12.5709375 5.78796875 -13.0246875 6.28296875 -13.4921875 6.79296875 C-15.1171875 8.29296875 -15.1171875 8.29296875 -17.1171875 8.29296875 C-17.4471875 8.95296875 -17.7771875 9.61296875 -18.1171875 10.29296875 C-18.7771875 10.29296875 -19.4371875 10.29296875 -20.1171875 10.29296875 C-20.33375 11.19015625 -20.33375 11.19015625 -20.5546875 12.10546875 C-21.0044314 13.85447279 -21.54611091 15.57973898 -22.1171875 17.29296875 C-23.4371875 16.96296875 -24.7571875 16.63296875 -26.1171875 16.29296875 C-20.02969518 5.43783863 -12.73166217 -0.23979188 0 0 Z " fill="#074160" transform="translate(155.1171875,139.70703125)"/>
<path d="M0 0 C5.22859225 -0.12459983 10.45630019 -0.21480498 15.68603516 -0.2746582 C17.46092809 -0.29963627 19.23571993 -0.33363126 21.01025391 -0.37719727 C41.09059619 -0.85745306 41.09059619 -0.85745306 49.69335938 6.43554688 C51.125 7.8125 51.125 7.8125 53 10 C52.67 10.66 52.34 11.32 52 12 C50.68 11.01 49.36 10.02 48 9 C44.17053157 10.45255699 42.87949705 12.42895561 41 16 C41.66 16 42.32 16 43 16 C43 16.99 43 17.98 43 19 C43.99 19.33 44.98 19.66 46 20 C46.0462955 27.26692328 46.08185493 34.53381488 46.10362434 41.80085564 C46.11407142 45.17506994 46.12824725 48.54918352 46.15087891 51.92333984 C46.17504885 55.80048318 46.18646511 59.67748277 46.1953125 63.5546875 C46.20563507 64.76929657 46.21595764 65.98390564 46.22659302 67.23532104 C46.22681961 68.91683762 46.22681961 68.91683762 46.22705078 70.63232422 C46.231492 71.62271698 46.23593323 72.61310974 46.24050903 73.6335144 C46 76 46 76 44 78 C43.99453156 76.96762711 43.99453156 76.96762711 43.98895264 75.91439819 C43.94710657 68.74385953 43.87774523 61.57395967 43.79248047 54.40380859 C43.76207056 51.72854791 43.74305956 49.05389447 43.72900391 46.37841797 C43.70757097 42.53049079 43.66091483 38.68356476 43.609375 34.8359375 C43.60814636 33.64197357 43.60691772 32.44800964 43.60565186 31.21786499 C43.46859327 22.79647514 43.46859327 22.79647514 39 16 C35.85375579 13.73324645 33.16193199 13.79201145 29.3515625 13.8671875 C28.26359375 13.86460937 27.175625 13.86203125 26.0546875 13.859375 C23.77581384 13.86975711 21.49692237 13.90346067 19.21875 13.9609375 C11.05498588 13.88373878 11.05498588 13.88373878 8.01464844 11.33691406 C6.48691198 9.29257031 5.26349662 7.21491595 4 5 C2.6887153 3.31593112 1.35969679 1.64522952 0 0 Z " fill="#05405F" transform="translate(315,140)"/>
<path d="M0 0 C3.3 0 6.6 0 10 0 C10 16.17 10 32.34 10 49 C-1 49 -1 49 -3.4296875 47.12890625 C-3.90664063 46.28199219 -4.38359375 45.43507813 -4.875 44.5625 C-5.40996094 43.65628906 -5.94492187 42.75007813 -6.49609375 41.81640625 C-7.24052734 40.42228516 -7.24052734 40.42228516 -8 39 C-8.50660156 38.14277344 -9.01320313 37.28554688 -9.53515625 36.40234375 C-13 30.46674791 -13 30.46674791 -13 28 C-12.4225 28.185625 -11.845 28.37125 -11.25 28.5625 C-9.01302293 29.17934735 -9.01302293 29.17934735 -6.9375 28.375 C-6.298125 28.25125 -5.65875 28.1275 -5 28 C-3.375 29.4375 -3.375 29.4375 -2 31 C-1.34 31 -0.68 31 0 31 C0 20.77 0 10.54 0 0 Z " fill="#08405E" transform="translate(271,358)"/>
<path d="M0 0 C0.99 0 1.98 0 3 0 C3 0.66 3 1.32 3 2 C2.34 2 1.68 2 1 2 C1.16749756 2.80195801 1.33499512 3.60391602 1.50756836 4.43017578 C2.09900966 8.71775867 2.02084417 12.80099527 1.87890625 17.1171875 C1.85529526 17.97434357 1.83168427 18.83149963 1.80735779 19.71463013 C1.73118088 22.43494148 1.64696063 25.1549345 1.5625 27.875 C1.50923321 29.72654726 1.45649317 31.57810975 1.40429688 33.4296875 C1.2766119 37.95338382 1.13803923 42.47656053 1 47 C10.57 47 20.14 47 30 47 C29.67 45.02 29.34 43.04 29 41 C27.35451172 41.03480469 27.35451172 41.03480469 25.67578125 41.0703125 C24.221361 41.08907921 22.76693336 41.10727844 21.3125 41.125 C20.59126953 41.14175781 19.87003906 41.15851563 19.12695312 41.17578125 C14.95123219 41.21391569 11.7505862 40.8789919 8 39 C7.83126522 37.56274129 7.66509263 36.12518162 7.5 34.6875 C7.4071875 33.88699219 7.314375 33.08648437 7.21875 32.26171875 C7 30 7 30 7 27 C7.66 27 8.32 27 9 27 C8.48670024 21.90853215 8.48670024 21.90853215 7.375 16.9375 C6.78218827 13.87463938 7.47345437 11.04226366 8 8 C13.43696834 6.12813968 17.74148646 5.85386427 23.4375 6.375 C24.16904297 6.43171875 24.90058594 6.4884375 25.65429688 6.546875 C27.43711286 6.6867037 29.21872382 6.84175938 31 7 C31 7.33 31 7.66 31 8 C24.07 8 17.14 8 10 8 C10 11.63 10 15.26 10 19 C16.27 19 22.54 19 29 19 C29 21.97 29 24.94 29 28 C22.73 28 16.46 28 10 28 C10 31.63 10 35.26 10 39 C17.26 39 24.52 39 32 39 C32 41.97 32 44.94 32 48 C21.44 48 10.88 48 0 48 C0 32.16 0 16.32 0 0 Z " fill="#083F5E" transform="translate(121,359)"/>
<path d="M0 0 C3.63 0 7.26 0 11 0 C11 11.88 11 23.76 11 36 C9.35 35.67 7.7 35.34 6 35 C6 34.34 6 33.68 6 33 C4.515 33.495 4.515 33.495 3 34 C2.67 28.72 2.34 23.44 2 18 C1.67 23.28 1.34 28.56 1 34 C0.67 34 0.34 34 0 34 C0 22.78 0 11.56 0 0 Z " fill="#144460" transform="translate(409,358)"/>
<path d="M0 0 C0.33 0 0.66 0 1 0 C1.00808685 0.73471527 1.01617371 1.46943054 1.02450562 2.22640991 C1.10237093 9.1425207 1.18963694 16.05845546 1.28752708 22.97430992 C1.33752304 26.53003393 1.38385244 30.08572776 1.421875 33.64160156 C1.46572333 37.72740639 1.52538806 41.81284581 1.5859375 45.8984375 C1.59748871 47.17866791 1.60903992 48.45889832 1.62094116 49.77792358 C1.64081085 50.95899689 1.66068054 52.14007019 1.68115234 53.35693359 C1.69447601 54.40062103 1.70779968 55.44430847 1.7215271 56.5196228 C1.75844259 59.17430962 1.75844259 59.17430962 4 61 C4 61.99 4 62.98 4 64 C5.55460938 64.18175781 5.55460938 64.18175781 7.140625 64.3671875 C8.51046438 64.53607181 9.88025349 64.70536411 11.25 64.875 C11.93191406 64.95363281 12.61382812 65.03226562 13.31640625 65.11328125 C18.56864364 65.776185 18.56864364 65.776185 20.97657776 67.02557373 C23.20591268 68.09916206 24.59070262 68.24070676 27.04663086 68.22363281 C28.2232151 68.22438812 28.2232151 68.22438812 29.42356873 68.22515869 C30.26218948 68.21788757 31.10081024 68.21061646 31.96484375 68.203125 C33.75196043 68.21367145 35.5390703 68.2254275 37.32617188 68.23828125 C40.13534141 68.24860275 42.94355868 68.24995692 45.75268555 68.22998047 C48.47005604 68.21520827 51.18512156 68.23767246 53.90234375 68.265625 C54.73894028 68.25025696 55.5755368 68.23488892 56.43748474 68.21905518 C62.17097281 68.31451494 62.17097281 68.31451494 64.67459106 70.38464355 C66.06860352 72.04589844 66.06860352 72.04589844 68 75 C66.02 74.505 66.02 74.505 64 74 C64 73.34 64 72.68 64 72 C63.01 72 62.02 72 61 72 C61 71.34 61 70.68 61 70 C59.73816895 70.03552979 58.47633789 70.07105957 57.17626953 70.10766602 C52.50615575 70.23778439 47.8358818 70.36103258 43.16552734 70.48217773 C41.14203921 70.53563266 39.11859977 70.59096466 37.09521484 70.64819336 C34.19118757 70.73000696 31.28705356 70.80512562 28.3828125 70.87890625 C27.47443634 70.90594131 26.56606018 70.93297638 25.63015747 70.96083069 C24.78943695 70.98092697 23.94871643 71.00102325 23.08251953 71.02172852 C22.34083527 71.04171402 21.599151 71.06169952 20.83499146 71.08229065 C19 71 19 71 17 70 C16.67 72.97 16.34 75.94 16 79 C12.51082194 79.08722945 10.51153674 78.45091017 7.890625 76.140625 C2.20486795 69.95684543 -0.26134365 65.07456884 -0.22705078 56.53564453 C-0.22682419 54.64436325 -0.22682419 54.64436325 -0.22659302 52.71487427 C-0.21638217 51.35418537 -0.20595022 49.99349812 -0.1953125 48.6328125 C-0.19157824 47.22891441 -0.18873322 45.8250137 -0.18673706 44.42111206 C-0.17913304 40.74186903 -0.1595127 37.06278611 -0.1373291 33.38360596 C-0.11680071 29.62294683 -0.10772044 25.86226161 -0.09765625 22.1015625 C-0.07626343 14.73430233 -0.04216698 7.36717368 0 0 Z " fill="#13415A" transform="translate(128,158)"/>
<path d="M0 0 C2.4375 0.8125 2.4375 0.8125 5 2 C5.99290126 4.97870377 6.05524548 6.59182885 5.87890625 9.66796875 C5.83056641 10.56064453 5.78222656 11.45332031 5.73242188 12.37304688 C5.67634766 13.30181641 5.62027344 14.23058594 5.5625 15.1875 C5.51029297 16.12787109 5.45808594 17.06824219 5.40429688 18.03710938 C5.27468082 20.35841501 5.13971819 22.67928409 5 25 C4.34 25 3.68 25 3 25 C3 26.32 3 27.64 3 29 C3 29.99 3 30.98 3 32 C3.66 32 4.32 32 5 32 C5 32.66 5 33.32 5 34 C5.66 34 6.32 34 7 34 C10 38.38461538 10 38.38461538 10 41 C10.99 41 11.98 41 13 41 C13 41.66 13 42.32 13 43 C12.34 43 11.68 43 11 43 C11 43.66 11 44.32 11 45 C9.0625 44.6875 9.0625 44.6875 7 44 C6.505 42.515 6.505 42.515 6 41 C5.01 40.67 4.02 40.34 3 40 C-4.16600376 30.09405362 -2.88478226 15.73796419 -1.5546875 4.10546875 C-1 1 -1 1 0 0 Z " fill="#074061" transform="translate(383,360)"/>
<path d="M0 0 C4.24041769 -0.82688145 7.79731205 -1.11729997 12 0 C15.99472956 4.32157107 20 9.95374387 20 16 C20.66 16 21.32 16 22 16 C22.26941406 15.29488281 22.53882813 14.58976562 22.81640625 13.86328125 C24.92377248 8.76526328 27.11241682 3.98340389 31 0 C34.82891797 -0.93664391 38.14223558 -0.69063052 42 0 C40.37885498 4.79821659 37.70723241 8.6672859 34.875 12.8125 C34.40707031 13.50537109 33.93914062 14.19824219 33.45703125 14.91210938 C32.30887563 16.61091105 31.15500633 18.30584864 30 20 C28.5216774 17.04335481 28.93967217 14.25770263 29 11 C27.7058258 12.22880216 27.7058258 12.22880216 26 15 C25.34 15 24.68 15 24 15 C24 15.66 24 16.32 24 17 C21.6875 17.3125 21.6875 17.3125 19 17 C17.18116991 14.6167054 16 13.04181663 16 10 C15.34 10 14.68 10 14 10 C14 9.34 14 8.68 14 8 C13.34 8 12.68 8 12 8 C11.34 6.35 10.68 4.7 10 3 C8.35 3 6.7 3 5 3 C4.7715451 5.24362573 4.7715451 5.24362573 7 7.125 C7.66 7.74375 8.32 8.3625 9 9 C8.01 9.99 7.02 10.98 6 12 C4.99466333 10.37829621 3.99588093 8.75252763 3 7.125 C2.443125 6.22007812 1.88625 5.31515625 1.3125 4.3828125 C0 2 0 2 0 0 Z " fill="#16425A" transform="translate(331,358)"/>
<path d="M0 0 C10.89 0 21.78 0 33 0 C33 2.97 33 5.94 33 9 C26.4 8.67 19.8 8.34 13 8 C12.67 7.34 12.34 6.68 12 6 C12.66 5.67 13.32 5.34 14 5 C10.95016004 3.47508002 8.3576631 3.76437452 5 4 C3.05630262 5.35429841 3.05630262 5.35429841 2 7 C2 5.68 2 4.36 2 3 C2.66 3 3.32 3 4 3 C4 2.34 4 1.68 4 1 C3.01 1 2.02 1 1 1 C1 16.84 1 32.68 1 49 C0.67 49 0.34 49 0 49 C0 32.83 0 16.66 0 0 Z " fill="#244A5E" transform="translate(120,358)"/>
<path d="M0 0 C2.52370777 2.29427979 3.38262276 3.76524552 5 7 C25.295 7.495 25.295 7.495 46 8 C42.10555226 15.78889549 35.84675417 21.71821821 29 27 C30.875 22.25 30.875 22.25 32 20 C32.99 20 33.98 20 35 20 C35.28875 19.195625 35.5775 18.39125 35.875 17.5625 C37 15 37 15 39 14 C39.65213292 11.97536745 39.65213292 11.97536745 40 10 C39.113125 10.53625 38.22625 11.0725 37.3125 11.625 C34 13 34 13 31.67895508 12.11181641 C30.7948999 11.74491699 29.91084473 11.37801758 29 11 C26.00664919 10.63814773 26.00664919 10.63814773 22.82421875 10.5859375 C21.66728516 10.54726562 20.51035156 10.50859375 19.31835938 10.46875 C18.12017578 10.4378125 16.92199219 10.406875 15.6875 10.375 C14.46998047 10.33632812 13.25246094 10.29765625 11.99804688 10.2578125 C8.99884772 10.16371998 5.99965177 10.07807791 3 10 C2.67 9.01 2.34 8.02 2 7 C1.34 6.67 0.68 6.34 0 6 C-1.40760735 10.69933937 -1.40760735 10.69933937 -2.375 15.5 C-3.27263795 19.0905518 -5.11283476 21.81540865 -7 25 C-7.33 25.99 -7.66 26.98 -8 28 C-8.66 28 -9.32 28 -10 28 C-7.46277869 18.38272302 -3.66846291 9.22643548 0 0 Z " fill="#31B3B6" transform="translate(269,200)"/>
<path d="M0 0 C2.5535704 1.2767852 2.6547418 2.09810967 3.59790039 4.74804688 C5.49250128 10.80134776 5.44936291 16.73505301 5.43359375 23.03125 C5.4388356 24.26234497 5.44407745 25.49343994 5.44947815 26.76184082 C5.45587557 29.35375212 5.45459108 31.94569255 5.44604492 34.53759766 C5.43752624 38.48783309 5.46634587 42.43662549 5.49804688 46.38671875 C5.49965896 48.91406207 5.49908123 51.44140793 5.49609375 53.96875 C5.51294472 55.72693054 5.51294472 55.72693054 5.53013611 57.52062988 C5.470396 64.59863019 4.47300406 69.81543398 1 76 C0.46375 77.010625 -0.0725 78.02125 -0.625 79.0625 C-1.07875 79.701875 -1.5325 80.34125 -2 81 C-2.66 81 -3.32 81 -4 81 C-4 81.66 -4 82.32 -4 83 C-5.485 83.495 -5.485 83.495 -7 84 C-6.50992626 76.5263755 -6.50992626 76.5263755 -4.0625 74 C-2 73 -2 73 0 73 C3.62041688 60.03046685 2.31695494 45.0341268 2.5625 31.6875 C2.60578146 29.48241521 2.64939849 27.27733698 2.69335938 25.07226562 C2.79944276 19.71491326 2.90138043 14.35749469 3 9 C2.34 9 1.68 9 1 9 C-0.4783226 6.04335481 -0.06032783 3.25770263 0 0 Z " fill="#36596C" transform="translate(368,152)"/>
<path d="M0 0 C-4.33984521 2.12335774 -8.40149808 2.34000255 -13.14453125 2.4140625 C-13.91431808 2.43342865 -14.68410492 2.4527948 -15.47721863 2.4727478 C-17.92220171 2.53225623 -20.36723262 2.57881295 -22.8125 2.625 C-24.47593134 2.66320631 -26.13934347 2.70225957 -27.80273438 2.7421875 C-31.86833241 2.83793383 -35.93402301 2.92207009 -40 3 C-40.27585937 3.63421875 -40.55171875 4.2684375 -40.8359375 4.921875 C-42.3895534 7.69544432 -44.04257982 8.06607784 -47 9 C-47 9.66 -47 10.32 -47 11 C-47.66 11 -48.32 11 -49 11 C-49 11.66 -49 12.32 -49 13 C-33.16 13 -17.32 13 -1 13 C-1 13.33 -1 13.66 -1 14 C-17.17 14.33 -33.34 14.66 -50 15 C-50 16.98 -50 18.96 -50 21 C-50.33 21 -50.66 21 -51 21 C-51 19.35 -51 17.7 -51 16 C-51.94875 16.515625 -52.8975 17.03125 -53.875 17.5625 C-54.90625 18.036875 -55.9375 18.51125 -57 19 C-57.66 18.67 -58.32 18.34 -59 18 C-58.10796875 17.11957031 -57.2159375 16.23914063 -56.296875 15.33203125 C-55.11444899 14.15898957 -53.93216481 12.98580491 -52.75 11.8125 C-51.87021484 10.9452832 -51.87021484 10.9452832 -50.97265625 10.06054688 C-50.39902344 9.49013672 -49.82539063 8.91972656 -49.234375 8.33203125 C-48.71069336 7.81358643 -48.18701172 7.2951416 -47.64746094 6.76098633 C-45.8546673 4.96223079 -45.8546673 4.96223079 -44.36474609 2.33813477 C-40.84987582 -1.13718142 -37.7029591 -0.74666561 -32.9296875 -0.7421875 C-32.05224884 -0.75968048 -31.17481018 -0.77717346 -30.27078247 -0.79519653 C-27.47199587 -0.84472955 -24.67416038 -0.85961736 -21.875 -0.875 C-19.98303596 -0.90672155 -18.09110601 -0.94055149 -16.19921875 -0.9765625 C-2.3816599 -1.19082995 -2.3816599 -1.19082995 0 0 Z " fill="#39596A" transform="translate(351,227)"/>
<path d="M0 0 C4.875 1.875 4.875 1.875 6 3 C7.77869726 3.15764405 9.56318476 3.25100677 11.34765625 3.31640625 C12.42724609 3.35830078 13.50683594 3.40019531 14.61914062 3.44335938 C16.32360352 3.50233398 16.32360352 3.50233398 18.0625 3.5625 C19.20267578 3.60568359 20.34285156 3.64886719 21.51757812 3.69335938 C24.34492195 3.79982839 27.17235738 3.90184207 30 4 C30 4.66 30 5.32 30 6 C31.32 6.33 32.64 6.66 34 7 C34 7.66 34 8.32 34 9 C34.66 9 35.32 9 36 9 C36 9.99 36 10.98 36 12 C36.99 12.33 37.98 12.66 39 13 C39.0462955 20.26692328 39.08185493 27.53381488 39.10362434 34.80085564 C39.11407142 38.17506994 39.12824725 41.54918352 39.15087891 44.92333984 C39.17504885 48.80048318 39.18646511 52.67748277 39.1953125 56.5546875 C39.20563507 57.76929657 39.21595764 58.98390564 39.22659302 60.23532104 C39.22681961 61.91683762 39.22681961 61.91683762 39.22705078 63.63232422 C39.231492 64.62271698 39.23593323 65.61310974 39.24050903 66.6335144 C39 69 39 69 37 71 C36.99453156 69.96762711 36.99453156 69.96762711 36.98895264 68.91439819 C36.94710657 61.74385953 36.87774523 54.57395967 36.79248047 47.40380859 C36.76207056 44.72854791 36.74305956 42.05389447 36.72900391 39.37841797 C36.70757097 35.53049079 36.66091483 31.68356476 36.609375 27.8359375 C36.60814636 26.64197357 36.60691772 25.44800964 36.60565186 24.21786499 C36.46859327 15.79647514 36.46859327 15.79647514 32 9 C28.85725741 6.74924889 25.94556584 6.70241528 22.140625 6.5859375 C20.46806641 6.52792969 20.46806641 6.52792969 18.76171875 6.46875 C17.60285156 6.4378125 16.44398438 6.406875 15.25 6.375 C14.07566406 6.33632812 12.90132813 6.29765625 11.69140625 6.2578125 C8.79442732 6.1636018 5.89745374 6.07798398 3 6 C2.01 4.02 1.02 2.04 0 0 Z " fill="#0F3245" transform="translate(322,147)"/>
<path d="M0 0 C0.33 0.99 0.66 1.98 1 3 C0.67 3.66 0.34 4.32 0 5 C-0.66 5 -1.32 5 -2 5 C-2.20496094 5.62648437 -2.40992188 6.25296875 -2.62109375 6.8984375 C-2.89050781 7.71570313 -3.15992188 8.53296875 -3.4375 9.375 C-3.70433594 10.18710938 -3.97117188 10.99921875 -4.24609375 11.8359375 C-5 14 -5 14 -6 16 C-6.66 16 -7.32 16 -8 16 C-8.08845016 19.14565046 -8.14086835 22.29097375 -8.1875 25.4375 C-8.21263672 26.31599609 -8.23777344 27.19449219 -8.26367188 28.09960938 C-8.27333984 28.97294922 -8.28300781 29.84628906 -8.29296875 30.74609375 C-8.3086792 31.53685303 -8.32438965 32.3276123 -8.34057617 33.14233398 C-7.96456241 37.11499368 -7.96456241 37.11499368 -5 45 C18.265 45.495 18.265 45.495 42 46 C42.66 41.05 43.32 36.1 44 31 C44.66 31 45.32 31 46 31 C46.103125 29.72125 46.20625 28.4425 46.3125 27.125 C46.48828125 24.9453125 46.48828125 24.9453125 47 23 C47.99 22.34 48.98 21.68 50 21 C48.98513766 27.3012348 47.3545768 33.3062527 45.41796875 39.375 C45.18541382 40.11105469 44.95285889 40.84710938 44.71325684 41.60546875 C44.14452289 43.40439101 43.57258948 45.20230122 43 47 C36.05829978 47.05058729 29.11664685 47.08568579 22.17480469 47.10986328 C19.81183089 47.11993924 17.44886961 47.13360029 15.0859375 47.15087891 C11.69528112 47.17505724 8.30478916 47.18646699 4.9140625 47.1953125 C3.85256989 47.20563507 2.79107727 47.21595764 1.69741821 47.22659302 C0.71655243 47.22674408 -0.26431335 47.22689514 -1.27490234 47.22705078 C-2.14094086 47.231492 -3.00697937 47.23593323 -3.89926147 47.24050903 C-6 47 -6 47 -8 45 C-12.33455892 32.55007746 -11.89442854 20.53799578 -6.41015625 8.578125 C-4.59969005 5.26813139 -2.62560092 2.70061809 0 0 Z " fill="#31A7AA" transform="translate(185,152)"/>
<path d="M0 0 C0.84755859 0.00322266 1.69511719 0.00644531 2.56835938 0.00976562 C3.8899707 0.02233398 3.8899707 0.02233398 5.23828125 0.03515625 C6.57729492 0.04192383 6.57729492 0.04192383 7.94335938 0.04882812 C10.14586198 0.06060621 12.3483301 0.07854144 14.55078125 0.09765625 C14.55078125 3.06765625 14.55078125 6.03765625 14.55078125 9.09765625 C8.28078125 9.09765625 2.01078125 9.09765625 -4.44921875 9.09765625 C-4.44921875 7.44765625 -4.44921875 5.79765625 -4.44921875 4.09765625 C-5.43921875 4.42765625 -6.42921875 4.75765625 -7.44921875 5.09765625 C-7.44921875 3.77765625 -7.44921875 2.45765625 -7.44921875 1.09765625 C-4.6251011 0.1562837 -2.92003843 -0.01959757 0 0 Z " fill="#083F5D" transform="translate(306.44921875,377.90234375)"/>
<path d="M0 0 C0.66 0 1.32 0 2 0 C2.19110352 0.72477539 2.38220703 1.44955078 2.57910156 2.19628906 C3.46543947 5.54858755 4.35769038 8.89928633 5.25 12.25 C5.55035156 13.38953125 5.85070312 14.5290625 6.16015625 15.703125 C8.51932454 28.17360817 8.51932454 28.17360817 14 39 C17.63194641 39.19149081 17.63194641 39.19149081 21 38 C20.67 38.99 20.34 39.98 20 41 C14.04296875 41.48828125 14.04296875 41.48828125 12 41 C9.04315036 37.27550671 7.9592541 32.97543354 6.8125 28.4375 C6.63525391 27.77814453 6.45800781 27.11878906 6.27539062 26.43945312 C5.41728825 23.14288221 5 20.43559747 5 17 C4.34 16.67 3.68 16.34 3 16 C3 14.02 3 12.04 3 10 C1.35 10 -0.3 10 -2 10 C-2.144375 11.299375 -2.28875 12.59875 -2.4375 13.9375 C-2.875 17.875 -2.875 17.875 -4 19 C-5.37049484 19.10644277 -6.7462759 19.14617005 -8.12084961 19.15771484 C-9.43242287 19.17310806 -9.43242287 19.17310806 -10.77049255 19.18881226 C-12.1970089 19.19976425 -12.1970089 19.19976425 -13.65234375 19.2109375 C-15.64519058 19.23900067 -17.63802902 19.26766509 -19.63085938 19.296875 C-22.78897925 19.33821229 -25.94694153 19.37507859 -29.10522461 19.40136719 C-32.14209787 19.42886951 -35.17824662 19.4747371 -38.21484375 19.5234375 C-39.16383041 19.52669037 -40.11281708 19.52994324 -41.09056091 19.53329468 C-42.40686241 19.55814438 -42.40686241 19.55814438 -43.74975586 19.58349609 C-44.91105263 19.59562637 -44.91105263 19.59562637 -46.09580994 19.60800171 C-48.40884897 19.85156528 -48.40884897 19.85156528 -50 23 C-50.99 21.35 -51.98 19.7 -53 18 C-37.16 18 -21.32 18 -5 18 C-4.34 15.03 -3.68 12.06 -3 9 C-2.49222842 7.30199321 -1.95929798 5.61071693 -1.375 3.9375 C-1.11460937 3.18339844 -0.85421875 2.42929688 -0.5859375 1.65234375 C-0.39257812 1.10707031 -0.19921875 0.56179687 0 0 Z " fill="#44B1B5" transform="translate(238,190)"/>
<path d="M0 0 C0.99 0 1.98 0 3 0 C3 0.66 3 1.32 3 2 C2.34 2 1.68 2 1 2 C1.16749756 2.80195801 1.33499512 3.60391602 1.50756836 4.43017578 C2.09900966 8.71775867 2.02084417 12.80099527 1.87890625 17.1171875 C1.85529526 17.97434357 1.83168427 18.83149963 1.80735779 19.71463013 C1.73118088 22.43494148 1.64696063 25.1549345 1.5625 27.875 C1.50923321 29.72654726 1.45649317 31.57810975 1.40429688 33.4296875 C1.2766119 37.95338382 1.13803923 42.47656053 1 47 C10.57 47 20.14 47 30 47 C29.67 45.02 29.34 43.04 29 41 C27.35451172 41.03480469 27.35451172 41.03480469 25.67578125 41.0703125 C24.221361 41.08907921 22.76693336 41.10727844 21.3125 41.125 C20.59126953 41.14175781 19.87003906 41.15851563 19.12695312 41.17578125 C14.95123219 41.21391569 11.7505862 40.8789919 8 39 C7.83126522 37.56274129 7.66509263 36.12518162 7.5 34.6875 C7.4071875 33.88699219 7.314375 33.08648437 7.21875 32.26171875 C7 30 7 30 7 27 C13.93 27 20.86 27 28 27 C28 27.33 28 27.66 28 28 C22.06 28 16.12 28 10 28 C10 31.63 10 35.26 10 39 C17.26 39 24.52 39 32 39 C32 41.97 32 44.94 32 48 C21.44 48 10.88 48 0 48 C0 32.16 0 16.32 0 0 Z " fill="#163547" transform="translate(121,359)"/>
<path d="M0 0 C0.33 0 0.66 0 1 0 C1.66 2.97 2.32 5.94 3 9 C3.33 7.35 3.66 5.7 4 4 C6.97 4.495 6.97 4.495 10 5 C10 7.97 10 10.94 10 14 C16.93 14 23.86 14 31 14 C31 14.33 31 14.66 31 15 C27.20956819 15.25408976 23.41791947 15.47403593 19.625 15.6875 C18.54476563 15.76033203 17.46453125 15.83316406 16.3515625 15.90820312 C15.3203125 15.96298828 14.2890625 16.01777344 13.2265625 16.07421875 C12.27346191 16.13182373 11.32036133 16.18942871 10.33837891 16.2487793 C9.56671387 16.16668213 8.79504883 16.08458496 8 16 C7.34 15.01 6.68 14.02 6 13 C5.67 13.66 5.34 14.32 5 15 C4.34 15 3.68 15 3 15 C3.27617533 16.94074861 3.27617533 16.94074861 4 19 C7.33803691 21.22535794 8.62819711 21.28978404 12.54296875 21.4140625 C14.15268555 21.47207031 14.15268555 21.47207031 15.79492188 21.53125 C16.91447266 21.5621875 18.03402344 21.593125 19.1875 21.625 C20.31865234 21.66367187 21.44980469 21.70234375 22.61523438 21.7421875 C25.4099925 21.83652533 28.20474278 21.92211652 31 22 C31 22.33 31 22.66 31 23 C20.77 23 10.54 23 0 23 C0 15.41 0 7.82 0 0 Z " fill="#0C374F" transform="translate(292,384)"/>
<path d="M0 0 C12.87 0 25.74 0 39 0 C37.02 2.31 35.04 4.62 33 7 C32.46890625 8.12664062 31.9378125 9.25328125 31.390625 10.4140625 C29 13 29 13 26.44335938 13.46777344 C23.19121097 13.59238077 20.00104285 13.52208895 16.75 13.375 C15.06003906 13.33439453 15.06003906 13.33439453 13.3359375 13.29296875 C10.55535763 13.22227604 7.77864641 13.1236504 5 13 C5 12.34 5 11.68 5 11 C5.62044189 10.9906543 6.24088379 10.98130859 6.88012695 10.97167969 C9.69172677 10.91799005 12.5016598 10.83434354 15.3125 10.75 C16.28896484 10.73582031 17.26542969 10.72164062 18.27148438 10.70703125 C19.20927734 10.67480469 20.14707031 10.64257812 21.11328125 10.609375 C21.97735596 10.58842773 22.84143066 10.56748047 23.73168945 10.54589844 C26.704909 9.83035448 27.33642861 8.47335055 29 6 C29.66 6 30.32 6 31 6 C31.33 5.01 31.66 4.02 32 3 C31.10168457 2.98018066 30.20336914 2.96036133 29.27783203 2.93994141 C25.94909922 2.86190739 22.62082744 2.77521886 19.29248047 2.68261719 C17.8511626 2.64430326 16.40974832 2.60945457 14.96826172 2.578125 C12.89776114 2.53252554 10.82792567 2.47452556 8.7578125 2.4140625 C6.88826904 2.36693115 6.88826904 2.36693115 4.98095703 2.31884766 C2 2 2 2 0 0 Z " fill="#14364C" transform="translate(146,140)"/>
<path d="M0 0 C2.31 0.33 4.62 0.66 7 1 C5.73046875 2.49739583 4.4609375 3.99479167 3.19140625 5.4921875 C0.83074871 8.47977376 0.87362949 10.59441404 0.87060547 14.3359375 C0.86745331 15.45049316 0.86430115 16.56504883 0.86105347 17.71337891 C0.8630777 18.92171387 0.86510193 20.13004883 0.8671875 21.375 C0.86575241 23.22810791 0.86575241 23.22810791 0.86428833 25.11865234 C0.86343196 28.40586084 0.86746656 31.69302236 0.87304688 34.98022461 C0.87499797 36.99789941 0.87305408 39.01553072 0.86962891 41.03320312 C0.86347008 44.89715613 0.86419516 48.76104435 0.8671875 52.625 C0.86516327 53.83333496 0.86313904 55.04166992 0.86105347 56.28662109 C0.86420563 57.40117676 0.86735779 58.51573242 0.87060547 59.6640625 C0.87140106 60.64842285 0.87219666 61.6327832 0.87301636 62.64697266 C0.84444324 65.02085748 0.84444324 65.02085748 2 67 C0.35 66.67 -1.3 66.34 -3 66 C-2.67 45.21 -2.34 24.42 -2 3 C-1.34 3 -0.68 3 0 3 C0 2.01 0 1.02 0 0 Z " fill="#0F3950" transform="translate(141,153)"/>
<path d="M0 0 C3.3 0 6.6 0 10 0 C10 16.17 10 32.34 10 49 C6.7 49 3.4 49 0 49 C0 48.67 0 48.34 0 48 C2.97 48 5.94 48 9 48 C8.67 32.82 8.34 17.64 8 2 C6.02 2 4.04 2 2 2 C2 11.57 2 21.14 2 31 C1.34 31.33 0.68 31.66 0 32 C0 21.44 0 10.88 0 0 Z " fill="#113245" transform="translate(271,358)"/>
<path d="M0 0 C3.0625 1.625 3.0625 1.625 5.0625 3.625 C3.62456608 3.31450274 2.1871682 3.0015224 0.75 2.6875 C-0.05050781 2.51347656 -0.85101563 2.33945313 -1.67578125 2.16015625 C-3.9375 1.625 -3.9375 1.625 -6.9375 0.625 C-13.67523444 0.28561782 -20.27640546 0.60021622 -26.9375 1.625 C-26.9375 2.285 -26.9375 2.945 -26.9375 3.625 C-27.9275 3.955 -28.9175 4.285 -29.9375 4.625 C-30.2675 5.285 -30.5975 5.945 -30.9375 6.625 C-33.24715848 7.67852843 -35.5804774 8.68219096 -37.9375 9.625 C-37.9375 11.275 -37.9375 12.925 -37.9375 14.625 C-39.2575 14.295 -40.5775 13.965 -41.9375 13.625 C-42.370625 14.8315625 -42.370625 14.8315625 -42.8125 16.0625 C-43.9375 18.625 -43.9375 18.625 -45.9375 19.625 C-48.875 20 -48.875 20 -51.9375 19.625 C-53.875 17.25 -53.875 17.25 -54.9375 14.625 C-54.6075 13.965 -54.2775 13.305 -53.9375 12.625 C-53.009375 13.8315625 -53.009375 13.8315625 -52.0625 15.0625 C-50.19585959 17.66374519 -50.19585959 17.66374519 -47.9375 18.625 C-47.69 18.068125 -47.4425 17.51125 -47.1875 16.9375 C-38.67177463 1.18340806 -16.67317268 -6.11349665 0 0 Z " fill="#3DAEAF" transform="translate(298.9375,141.375)"/>
<path d="M0 0 C0.66 0 1.32 0 2 0 C2.16820455 6.35358375 2.32809887 12.7073374 2.48217773 19.0612793 C2.53559441 21.22343701 2.59092351 23.38554834 2.64819336 25.54760742 C2.73011333 28.6527303 2.80518663 31.75795422 2.87890625 34.86328125 C2.90594131 35.83211746 2.93297638 36.80095367 2.96083069 37.79914856 C2.98092697 38.6998558 3.00102325 39.60056305 3.02172852 40.52856445 C3.04171402 41.32132278 3.06169952 42.11408112 3.08229065 42.93086243 C3 45 3 45 2 48 C11.57 48 21.14 48 31 48 C31 48.33 31 48.66 31 49 C20.77 49 10.54 49 0 49 C0 32.83 0 16.66 0 0 Z " fill="#314C5D" transform="translate(161,358)"/>
<path d="M0 0 C0.66 0 1.32 0 2 0 C2.10174864 7.25899226 2.17161187 14.51779934 2.21972656 21.77734375 C2.23979295 24.24486158 2.26705244 26.71233215 2.30175781 29.1796875 C2.35049306 32.73449393 2.37301939 36.28866944 2.390625 39.84375 C2.41127014 40.93989624 2.43191528 42.03604248 2.45318604 43.16540527 C2.45542408 50.87292903 1.19310805 55.90548825 -3.6328125 62.09375 C-7.77777778 66 -7.77777778 66 -10 66 C-10.125 61.25 -10.125 61.25 -9 59 C-6.6859378 58.26924352 -4.35171131 57.59861742 -2 57 C-2 55.35 -2 53.7 -2 52 C-1.34 52 -0.68 52 0 52 C0 34.84 0 17.68 0 0 Z " fill="#163D4F" transform="translate(300,241)"/>
<path d="M0 0 C5.22859225 -0.12459983 10.45630019 -0.21480498 15.68603516 -0.2746582 C17.46092809 -0.29963627 19.23571993 -0.33363126 21.01025391 -0.37719727 C41.09059619 -0.85745306 41.09059619 -0.85745306 49.69335938 6.43554688 C51.125 7.8125 51.125 7.8125 53 10 C52.67 10.66 52.34 11.32 52 12 C51.5875 11.54625 51.175 11.0925 50.75 10.625 C48.93591905 8.94049626 47.24714373 8.00734029 45 7 C45 6.34 45 5.68 45 5 C43.35 5 41.7 5 40 5 C40 4.34 40 3.68 40 3 C28.78 2.67 17.56 2.34 6 2 C6 2.99 6 3.98 6 5 C2.83884224 3.63016497 2.0072908 3.0109362 0 0 Z " fill="#14364B" transform="translate(315,140)"/>
<path d="M0 0 C3.33273623 -0.30297602 5.35435714 -0.39455953 8.25 1.375 C10.43689356 4.65534034 10.86757861 7.50762185 11.50390625 11.359375 C11.97138545 13.84768947 12.64080641 16.06082519 13.5 18.4375 C15.29177571 23.51268197 16.15739824 28.69656541 17 34 C17.66 34 18.32 34 19 34 C19 34.66 19 35.32 19 36 C19.66 36 20.32 36 21 36 C21 34.68 21 33.36 21 32 C21.66 32 22.32 32 23 32 C23.33 30.35 23.66 28.7 24 27 C25.35304209 31.05912626 24.15216503 32.77149591 22.5625 36.6875 C22.08941406 37.86699219 21.61632812 39.04648438 21.12890625 40.26171875 C20.75636719 41.16535156 20.38382812 42.06898438 20 43 C19.34 43 18.68 43 18 43 C10.82516636 19.59407139 10.82516636 19.59407139 7.7265625 8.546875 C7.19533094 6.68470847 6.61236191 4.83708574 6 3 C3.10813214 1.66695302 3.10813214 1.66695302 0.8125 2.9375 C0.214375 3.288125 -0.38375 3.63875 -1 4 C-0.67 2.68 -0.34 1.36 0 0 Z " fill="#3EAEB2" transform="translate(236,169)"/>
<path d="M0 0 C5.56732224 1.33131619 5.56732224 1.33131619 7.375 4.125 C8.22233121 8.02272356 8.38145399 10.99473311 8 15 C6 17.5 6 17.5 4 19 C1.81148597 17.09387487 0.23398801 15.61196863 -0.8125 12.875 C-1.09569283 8.53270986 -0.54370657 4.307829 0 0 Z " fill="#0A3F5D" transform="translate(46,361)"/>
<path d="M0 0 C10.56 0 21.12 0 32 0 C32 2.97 32 5.94 32 9 C29.525 8.505 29.525 8.505 27 8 C27.66 6.68 28.32 5.36 29 4 C25.95236066 2.98412022 23.65281033 2.80195594 20.45703125 2.68359375 C19.48999268 2.64548584 18.5229541 2.60737793 17.52661133 2.56811523 C16.30095459 2.52501221 15.07529785 2.48190918 13.8125 2.4375 C9.914375 2.293125 6.01625 2.14875 2 2 C1.67 9.92 1.34 17.84 1 26 C0.67 26 0.34 26 0 26 C0 17.42 0 8.84 0 0 Z " fill="#23475A" transform="translate(292,358)"/>
<path d="M0 0 C0.33 0.66 0.66 1.32 1 2 C1.66 2.33 2.32 2.66 3 3 C3 3.99 3 4.98 3 6 C3.74459473 5.99476318 4.48918945 5.98952637 5.25634766 5.98413086 C32.57404344 5.81727622 32.57404344 5.81727622 44 7 C44 7.33 44 7.66 44 8 C27.5 8 11 8 -6 8 C-6 7.34 -6 6.68 -6 6 C-5.34 6 -4.68 6 -4 6 C-4 5.34 -4 4.68 -4 4 C-2.70766393 2.62689293 -1.37562854 1.28965176 0 0 Z " fill="#0A3750" transform="translate(308,232)"/>
<path d="M0 0 C3.04581827 2.46566241 5.23214535 5.02836458 7.625 8.125 C4.95833333 6.79166667 2.29166667 5.45833333 -0.375 4.125 C-0.375 3.135 -0.375 2.145 -0.375 1.125 C-6.67384005 -1.20314269 -12.79717356 -2.6197694 -19.4375 -3.5625 C-20.30310547 -3.69205078 -21.16871094 -3.82160156 -22.06054688 -3.95507812 C-24.16430608 -4.26889856 -26.26951257 -4.57299214 -28.375 -4.875 C-28.375 -4.215 -28.375 -3.555 -28.375 -2.875 C-29.24511719 -2.69324219 -29.24511719 -2.69324219 -30.1328125 -2.5078125 C-34.65528442 -1.53764526 -39.01250966 -0.44102217 -43.375 1.125 C-43.375 1.785 -43.375 2.445 -43.375 3.125 C-45.75 4.8125 -45.75 4.8125 -48.375 6.125 C-49.035 5.795 -49.695 5.465 -50.375 5.125 C-35.0498318 -8.05316396 -17.80112101 -9.88951167 0 0 Z " fill="#36ADB1" transform="translate(236.375,145.875)"/>
<path d="M0 0 C1 2 1 2 0.0625 5.125 C-0.288125 6.07375 -0.63875 7.0225 -1 8 C-1.66 8 -2.32 8 -3 8 C-3.2475 8.9075 -3.495 9.815 -3.75 10.75 C-5.05618237 14.14607416 -6.39082822 15.55916188 -9 18 C-9.33 18.99 -9.66 19.98 -10 21 C-4.56716386 20.27991699 -4.56716386 20.27991699 -0.625 17.0625 C-0.41875 16.381875 -0.2125 15.70125 0 15 C0.66 14.01 1.32 13.02 2 12 C2.66 12.33 3.32 12.66 4 13 C2.45483049 16.79515318 0.84971856 20.02501908 -2 23 C-6.11918207 23.89091724 -9.8501683 23.60434442 -14 23 C-12.72199484 19.55044666 -11.23881563 16.61909971 -9.1796875 13.57421875 C-8.64472656 12.77822266 -8.10976563 11.98222656 -7.55859375 11.16210938 C-7.00300781 10.34548828 -6.44742187 9.52886719 -5.875 8.6875 C-5.31167969 7.85154297 -4.74835938 7.01558594 -4.16796875 6.15429688 C-2.78279211 4.10000948 -1.39337781 2.04872962 0 0 Z " fill="#1C3C4C" transform="translate(344,384)"/>
<path d="M0 0 C3.63 0 7.26 0 11 0 C11.70242071 2.53836153 12.38710202 5.07944063 13.0625 7.625 C13.26166016 8.33785156 13.46082031 9.05070312 13.66601562 9.78515625 C14.82267407 14.2088675 15.13915367 17.45771429 14 22 C11.98740676 18.98111014 11.73456889 18.06143424 11.5 14.625 C11.16154595 11.10278329 10.84084742 8.1003746 9 5 C7.68 4.67 6.36 4.34 5 4 C4.67 6.97 4.34 9.94 4 13 C1.27835324 10.27835324 0.89427524 7.70485455 0 4 C0 2.68 0 1.36 0 0 Z " fill="#173C50" transform="translate(42,358)"/>
<path d="M0 0 C0.8971875 0.9590625 0.8971875 0.9590625 1.8125 1.9375 C3.90810337 4.20310389 3.90810337 4.20310389 7 5 C7 5.99 7 6.98 7 8 C8.57301041 9.8590123 9.81619917 10.90809958 12 12 C13.99960012 12.039992 16.00047242 12.04346799 18 12 C18 12.66 18 13.32 18 14 C11.98718663 16.00427112 4.61285405 16.04697758 -1.25 13.5 C-2.1575 13.005 -3.065 12.51 -4 12 C-0.98968256 11.06576355 -0.13349732 10.95550089 3 12 C3 11.34 3 10.68 3 10 C3.66 10 4.32 10 5 10 C5 9.34 5 8.68 5 8 C4.01 8 3.02 8 2 8 C0.25 5.6875 0.25 5.6875 -1 3 C-0.67 2.01 -0.34 1.02 0 0 Z " fill="#19425A" transform="translate(391,393)"/>
<path d="M0 0 C0.33 0 0.66 0 1 0 C1 15.18 1 30.36 1 46 C2.98 46 4.96 46 7 46 C7.33 37.42 7.66 28.84 8 20 C8.33 20 8.66 20 9 20 C9 29.24 9 38.48 9 48 C6.03 48 3.06 48 0 48 C0 32.16 0 16.32 0 0 Z " fill="#11384E" transform="translate(240,359)"/>
<path d="M0 0 C2.02915769 0.93942486 4.03875312 1.92598385 6 3 C6 3.66 6 4.32 6 5 C6.66 5 7.32 5 8 5 C7.42647107 8.87132028 5.51295648 11.08172796 3 14 C2.690625 12.906875 2.38125 11.81375 2.0625 10.6875 C1.41662103 8.44592006 0.7376883 6.2130649 0 4 C-0.804375 4.2475 -0.804375 4.2475 -1.625 4.5 C-4.45886009 5.09660212 -7.1119806 5.0656368 -10 5 C-7.80803835 -1.10617888 -6.29638236 -1.45301131 0 0 Z " fill="#09415F" transform="translate(450,381)"/>
<path d="M0 0 C0.33 0.99 0.66 1.98 1 3 C0.67 3.66 0.34 4.32 0 5 C-0.66 5 -1.32 5 -2 5 C-2.20496094 5.62648437 -2.40992188 6.25296875 -2.62109375 6.8984375 C-2.89050781 7.71570313 -3.15992188 8.53296875 -3.4375 9.375 C-3.70433594 10.18710938 -3.97117188 10.99921875 -4.24609375 11.8359375 C-5 14 -5 14 -6 16 C-6.66 16 -7.32 16 -8 16 C-8.02948491 19.14581302 -8.04695916 22.29158963 -8.0625 25.4375 C-8.07087891 26.31599609 -8.07925781 27.19449219 -8.08789062 28.09960938 C-8.10899107 33.81783077 -7.73280057 39.32800815 -7 45 C-11.89475208 35.38009745 -12.10246918 24.97305414 -8.98828125 14.64453125 C-6.75128996 8.96384358 -4.25856452 4.38023779 0 0 Z " fill="#45B2B4" transform="translate(185,152)"/>
<path d="M0 0 C6.27 0 12.54 0 19 0 C19 2.97 19 5.94 19 9 C12.73 9 6.46 9 0 9 C0 8.34 0 7.68 0 7 C5.61 7 11.22 7 17 7 C17 5.35 17 3.7 17 2 C11.39 2 5.78 2 0 2 C0 1.34 0 0.68 0 0 Z " fill="#133849" transform="translate(302,378)"/>
<path d="M0 0 C0.33 0 0.66 0 1 0 C1.33 11.55 1.66 23.1 2 35 C1.01 35 0.02 35 -1 35 C-1 34.34 -1 33.68 -1 33 C-1.66 33 -2.32 33 -3 33 C-3.66 31.35 -4.32 29.7 -5 28 C-4.34 28 -3.68 28 -3 28 C-3 27.34 -3 26.68 -3 26 C-2.34 26 -1.68 26 -1 26 C-1.00523682 25.42556152 -1.01047363 24.85112305 -1.01586914 24.25927734 C-1.03678576 21.63119623 -1.04970659 19.00313271 -1.0625 16.375 C-1.07087891 15.47136719 -1.07925781 14.56773437 -1.08789062 13.63671875 C-1.10491895 8.97095711 -0.96829423 4.58986715 0 0 Z " fill="#0C394E" transform="translate(389,359)"/>
<path d="M0 0 C0.66 0.66 1.32 1.32 2 2 C1.79296875 4.05859375 1.79296875 4.05859375 1.1875 6.4375 C0.89939453 7.61119141 0.89939453 7.61119141 0.60546875 8.80859375 C0.12308568 10.55450924 -0.42720734 12.28162202 -1 14 C-5.29 14 -9.58 14 -14 14 C-14.33 11.36 -14.66 8.72 -15 6 C-14.01 6.33 -13.02 6.66 -12 7 C-12 8.32 -12 9.64 -12 11 C-8.76734274 10.78991116 -5.94366533 10.39354369 -3 9 C-1.30201655 6.13334276 -0.58419961 3.26345988 0 0 Z " fill="#183B4F" transform="translate(69,393)"/>
<path d="M0 0 C1.25541557 3.76624671 0.37061958 5.37188934 -1 9 C-2.60332791 9.08121924 -4.20784026 9.13929134 -5.8125 9.1875 C-6.70582031 9.22230469 -7.59914063 9.25710938 -8.51953125 9.29296875 C-11 9 -11 9 -12.88671875 7.73828125 C-13.25410156 7.16464844 -13.62148438 6.59101563 -14 6 C-13.67 4.68 -13.34 3.36 -13 2 C-10.03 2.33 -7.06 2.66 -4 3 C-4 2.34 -4 1.68 -4 1 C-2.68 0.67 -1.36 0.34 0 0 Z " fill="#093D59" transform="translate(411,397)"/>
<path d="M0 0 C1.65 0 3.3 0 5 0 C5.28875 0.969375 5.5775 1.93875 5.875 2.9375 C6.64214682 6.10664203 6.64214682 6.10664203 9 7 C9.75 9.875 9.75 9.875 10 13 C9.01 14.485 9.01 14.485 8 16 C7.34 15.34 6.68 14.68 6 14 C6.33 13.67 6.66 13.34 7 13 C6.34 12.67 5.68 12.34 5 12 C5 11.34 5 10.68 5 10 C4.01 9.67 3.02 9.34 2 9 C2 7.33333333 2 5.66666667 2 4 C1.01 3.67 0.02 3.34 -1 3 C-0.67 2.01 -0.34 1.02 0 0 Z " fill="#074061" transform="translate(336,360)"/>
<path d="M0 0 C3.63 0 7.26 0 11 0 C8.25 9.75 8.25 9.75 6 12 C4.875 6.375 4.875 6.375 6 3 C3.37098712 4.52206009 1.15634036 5.84365964 -1 8 C-1.625 6.25 -1.625 6.25 -2 4 C-1.34 2.68 -0.68 1.36 0 0 Z " fill="#113F57" transform="translate(103,358)"/>
<path d="M0 0 C6.93 0 13.86 0 21 0 C21 0.33 21 0.66 21 1 C15.06 1 9.12 1 3 1 C3 4.63 3 8.26 3 12 C9.93 12 16.86 12 24 12 C24 12.33 24 12.66 24 13 C21.10462723 13.2224897 18.20965101 13.42843154 15.3125 13.625 C14.49587891 13.68945312 13.67925781 13.75390625 12.83789062 13.8203125 C8.36853066 14.1098257 5.07410474 14.1739622 1 12 C0.83126522 10.56274129 0.66509263 9.12518162 0.5 7.6875 C0.4071875 6.88699219 0.314375 6.08648437 0.21875 5.26171875 C0 3 0 3 0 0 Z " fill="#0D2E40" transform="translate(128,386)"/>
<path d="M0 0 C7.57136716 2.15573648 15.78079241 4.88249176 20 12 C20.29296875 14.578125 20.29296875 14.578125 20.1875 17.25 C20.16042969 18.14203125 20.13335937 19.0340625 20.10546875 19.953125 C20.07066406 20.62859375 20.03585937 21.3040625 20 22 C19.67 22 19.34 22 19 22 C18.8046875 19.94921875 18.609375 17.8984375 18.4140625 15.84765625 C18.27742188 15.23792969 18.14078125 14.62820313 18 14 C17.34 13.67 16.68 13.34 16 13 C16 12.01 16 11.02 16 10 C15.34 10 14.68 10 14 10 C14 9.34 14 8.68 14 8 C13.4225 7.87625 12.845 7.7525 12.25 7.625 C10 7 10 7 8.1875 6.0625 C5.23076608 4.6263721 2.16698396 3.85264953 -1 3 C-0.67 2.01 -0.34 1.02 0 0 Z " fill="#1E4458" transform="translate(442,376)"/>
<path d="M0 0 C0.99 0.99 1.98 1.98 3 3 C3.99 3.33 4.98 3.66 6 4 C6.66 2.68 7.32 1.36 8 0 C10.6855594 2.6855594 11.06049974 5.37621328 12 9 C8.98968256 9.93423645 8.13349732 10.04449911 5 9 C4.67 9.99 4.34 10.98 4 12 C3.01 11.67 2.02 11.34 1 11 C0.67 7.37 0.34 3.74 0 0 Z " fill="#0F3D57" transform="translate(51,386)"/>
<path d="M0 0 C5.19591612 0.44033187 8.66335081 0.88303339 13 4 C12.40072174 7.35595828 11.15377564 9.37801226 9 12 C6.525 11.01 6.525 11.01 4 10 C4.99 9.34 5.98 8.68 7 8 C7.33 6.68 7.66 5.36 8 4 C5.03 4 2.06 4 -1 4 C-0.67 2.68 -0.34 1.36 0 0 Z " fill="#0E3D54" transform="translate(447,358)"/>
<path d="M0 0 C0.73154297 0.05671875 1.46308594 0.1134375 2.21679688 0.171875 C3.99961286 0.3117037 5.78122382 0.46675938 7.5625 0.625 C7.5625 0.955 7.5625 1.285 7.5625 1.625 C0.6325 1.625 -6.2975 1.625 -13.4375 1.625 C-13.1075 5.255 -12.7775 8.885 -12.4375 12.625 C-7.1575 12.955 -1.8775 13.285 3.5625 13.625 C2.9025 14.285 2.2425 14.945 1.5625 15.625 C-1.19339777 15.60752073 -3.82536676 15.48636729 -6.5625 15.25 C-7.31660156 15.19328125 -8.07070312 15.1365625 -8.84765625 15.078125 C-10.71168096 14.9365535 -12.57471137 14.78200041 -14.4375 14.625 C-16.23813225 9.77291462 -16.45968499 6.73592494 -15.4375 1.625 C-10.00053166 -0.24686032 -5.69601354 -0.52113573 0 0 Z " fill="#113449" transform="translate(144.4375,365.375)"/>
<path d="M0 0 C4.875 1.875 4.875 1.875 6 3 C7.77869726 3.15764405 9.56318476 3.25100677 11.34765625 3.31640625 C12.42724609 3.35830078 13.50683594 3.40019531 14.61914062 3.44335938 C16.32360352 3.50233398 16.32360352 3.50233398 18.0625 3.5625 C19.20267578 3.60568359 20.34285156 3.64886719 21.51757812 3.69335938 C24.34492195 3.79982839 27.17235738 3.90184207 30 4 C29.67 4.99 29.34 5.98 29 7 C16.13 6.505 16.13 6.505 3 6 C2.01 4.02 1.02 2.04 0 0 Z " fill="#13394E" transform="translate(322,147)"/>
<path d="M0 0 C0.99 0.33 1.98 0.66 3 1 C2.01 2.485 2.01 2.485 1 4 C0.01 4 -0.98 4 -2 4 C-2 4.66 -2 5.32 -2 6 C-5.36992013 7.01259619 -8.48897481 7.16555609 -12 7.1875 C-13.03125 7.20167969 -14.0625 7.21585937 -15.125 7.23046875 C-17.96545203 7.00276947 -19.59107948 6.46504061 -22 5 C-20.91460937 4.86722656 -19.82921875 4.73445313 -18.7109375 4.59765625 C-17.26561678 4.41933746 -15.82030474 4.24094831 -14.375 4.0625 C-13.66214844 3.97548828 -12.94929688 3.88847656 -12.21484375 3.79882812 C-8.12408039 3.29217395 -4.06157365 2.7110957 0 2 C0 1.34 0 0.68 0 0 Z " fill="#1F4456" transform="translate(456,401)"/>
<path d="M0 0 C3.1857029 1.39330742 5.19822217 3.02896738 7.5625 5.5625 C9.8343494 7.99626295 10.76779382 8.92259794 14 10 C14.268125 10.5775 14.53625 11.155 14.8125 11.75 C16.83261894 15.57759379 20.28586839 18.1429342 24.125 20.0625 C26.56998411 21.28499205 28.14774229 23.01543817 30 25 C29.67 25.66 29.34 26.32 29 27 C18.70860237 19.05376599 8.99104863 10.39973265 0 1 C0 0.67 0 0.34 0 0 Z " fill="#4DB0B5" transform="translate(214,239)"/>
<path d="M0 0 C5.22283205 -0.42810099 5.22283205 -0.42810099 8 0 C11.23826174 3.44718186 11.74747225 7.37032455 12 12 C11.34 13.32 10.68 14.64 10 16 C7.03 16 4.06 16 1 16 C0.67 15.34 0.34 14.68 0 14 C0.56589844 13.86722656 1.13179688 13.73445313 1.71484375 13.59765625 C2.81505859 13.33275391 2.81505859 13.33275391 3.9375 13.0625 C4.66839844 12.88847656 5.39929688 12.71445312 6.15234375 12.53515625 C7.99969898 12.16112431 7.99969898 12.16112431 9 11 C9 9.35 9 7.7 9 6 C6.03 4.35 3.06 2.7 0 1 C0 0.67 0 0.34 0 0 Z " fill="#173C53" transform="translate(442,385)"/>
<path d="M0 0 C3.63 0 7.26 0 11 0 C12.35439668 2.70879335 12.06501451 5.00933268 12 8 C11.67 7.01 11.34 6.02 11 5 C10.34 5 9.68 5 9 5 C9 4.34 9 3.68 9 3 C6.69 3.33 4.38 3.66 2 4 C1.34 5.98 0.68 7.96 0 10 C-0.66 10 -1.32 10 -2 10 C-1.54177532 6.53058454 -1.10868317 3.32604951 0 0 Z " fill="#193D4D" transform="translate(72,358)"/>
<path d="M0 0 C0.33 1.32 0.66 2.64 1 4 C0.01 4.495 0.01 4.495 -1 5 C-1.33 5.99 -1.66 6.98 -2 8 C-2.99 8.66 -3.98 9.32 -5 10 C-5.99 11.485 -5.99 11.485 -7 13 C-7.66 13 -8.32 13 -9 13 C-9 12.34 -9 11.68 -9 11 C-9.66 11 -10.32 11 -11 11 C-9.63310446 7.84930578 -8.14342115 5.99108226 -5.5 3.8125 C-4.8915625 3.30332031 -4.283125 2.79414062 -3.65625 2.26953125 C-2 1 -2 1 0 0 Z " fill="#18445D" transform="translate(213,70)"/>
<path d="M0 0 C13.86 0.33 27.72 0.66 42 1 C40 5 40 5 37 7 C37.33 5.68 37.66 4.36 38 3 C25.46 2.67 12.92 2.34 0 2 C0 1.34 0 0.68 0 0 Z " fill="#4AAFB4" transform="translate(273,207)"/>
<path d="M0 0 C5.32010722 -0.1485957 10.63900079 -0.25733006 15.96069336 -0.32958984 C17.76982672 -0.35971777 19.57881454 -0.40062963 21.38745117 -0.45263672 C23.99173897 -0.52563407 26.59409277 -0.55949398 29.19921875 -0.5859375 C30.00461594 -0.61690521 30.81001312 -0.64787292 31.63981628 -0.67977905 C37.17740448 -0.68307932 37.17740448 -0.68307932 39.65664673 1.37567139 C41.05004883 3.03662109 41.05004883 3.03662109 43 6 C41.68 5.67 40.36 5.34 39 5 C39 4.34 39 3.68 39 3 C38.01 3 37.02 3 36 3 C36 2.34 36 1.68 36 1 C24.12 1 12.24 1 0 1 C0 0.67 0 0.34 0 0 Z " fill="#224254" transform="translate(153,227)"/>
<path d="M0 0 C0.99 0.33 1.98 0.66 3 1 C3.6875 3.0625 3.6875 3.0625 4 5 C2.68 4.67 1.36 4.34 0 4 C-0.433125 5.2065625 -0.433125 5.2065625 -0.875 6.4375 C-2 9 -2 9 -4 10 C-6.9375 10.375 -6.9375 10.375 -10 10 C-11.9375 7.625 -11.9375 7.625 -13 5 C-12.67 4.34 -12.34 3.68 -12 3 C-11.071875 4.2065625 -11.071875 4.2065625 -10.125 5.4375 C-8.25835959 8.03874519 -8.25835959 8.03874519 -6 9 C-5.7525 8.443125 -5.505 7.88625 -5.25 7.3125 C-3.78393985 4.60028873 -1.97010529 2.36412635 0 0 Z " fill="#37B4BB" transform="translate(257,151)"/>
<path d="M0 0 C0.66 0.33 1.32 0.66 2 1 C0.71937515 2.7074998 -0.61767557 4.37373596 -2 6 C-2.66 6 -3.32 6 -4 6 C-4.33 6.66 -4.66 7.32 -5 8 C-5.66 8 -6.32 8 -7 8 C-7.2165625 8.8971875 -7.2165625 8.8971875 -7.4375 9.8125 C-7.8872439 11.56150404 -8.42892341 13.28677023 -9 15 C-10.32 14.67 -11.64 14.34 -13 14 C-9.64471265 8.0168991 -6.30829881 3.15414941 0 0 Z " fill="#1F4759" transform="translate(142,142)"/>
<path d="M0 0 C0.91644287 0.00523682 1.83288574 0.01047363 2.77709961 0.01586914 C3.76645508 0.0190918 4.75581055 0.02231445 5.77514648 0.02563477 C6.81606445 0.03401367 7.85698242 0.04239258 8.92944336 0.05102539 C10.49662109 0.05779297 10.49662109 0.05779297 12.09545898 0.06469727 C14.68600996 0.07652627 17.27644895 0.0930085 19.86694336 0.11352539 C19.86694336 0.44352539 19.86694336 0.77352539 19.86694336 1.11352539 C12.93694336 1.11352539 6.00694336 1.11352539 -1.13305664 1.11352539 C-1.13305664 4.74352539 -1.13305664 8.37352539 -1.13305664 12.11352539 C-3.11305664 11.45352539 -5.09305664 10.79352539 -7.13305664 10.11352539 C-6.47305664 8.79352539 -5.81305664 7.47352539 -5.13305664 6.11352539 C-4.14305664 6.44352539 -3.15305664 6.77352539 -2.13305664 7.11352539 C-2.31868164 6.14415039 -2.50430664 5.17477539 -2.69555664 4.17602539 C-2.83993164 3.16540039 -2.98430664 2.15477539 -3.13305664 1.11352539 C-2.13305664 0.11352539 -2.13305664 0.11352539 0 0 Z " fill="#0F354B" transform="translate(303.133056640625,365.886474609375)"/>
<path d="M0 0 C2.75 -0.375 2.75 -0.375 6 0 C9.32055849 3.76928261 10.5272777 7.0364159 11 12 C8.98863724 9.44008376 7.37154504 6.95409701 6 4 C3.66928121 3.58129447 3.66928121 3.58129447 1 4 C-1.33630748 6.39859044 -1.33630748 6.39859044 -3 9 C-3 7.02 -3 5.04 -3 3 C-2.01 3 -1.02 3 0 3 C0 2.01 0 1.02 0 0 Z " fill="#39B0B0" transform="translate(266,182)"/>
<path d="M0 0 C0.33 0 0.66 0 1 0 C1 1.98 1 3.96 1 6 C1.66 6 2.32 6 3 6 C4.125 9.75 4.125 9.75 3 12 C1.35 11.67 -0.3 11.34 -2 11 C-2 10.01 -2 9.02 -2 8 C-2.62599617 6.31763529 -3.28752268 4.6476038 -4 3 C-3.01 2.67 -2.02 2.34 -1 2 C-0.67 1.34 -0.34 0.68 0 0 Z " fill="#074063" transform="translate(434,368)"/>
<path d="M0 0 C2.31 0 4.62 0 7 0 C7.7032653 2.2033634 8.38698402 4.4129714 9.0625 6.625 C9.44535156 7.85476563 9.82820313 9.08453125 10.22265625 10.3515625 C11.0060989 14.02862498 10.88490125 16.38247917 10 20 C7.98740676 16.98111014 7.73456889 16.06143424 7.5 12.625 C7.01553582 7.59294469 7.01553582 7.59294469 5 3 C2.47627099 1.63921965 2.47627099 1.63921965 0 1 C0 0.67 0 0.34 0 0 Z " fill="#133C50" transform="translate(46,360)"/>
<path d="M0 0 C2.97 0 5.94 0 9 0 C8.01 0.33 7.02 0.66 6 1 C6.33 1.99 6.66 2.98 7 4 C9.31 4.33 11.62 4.66 14 5 C13.67 6.65 13.34 8.3 13 10 C12.67 9.34 12.34 8.68 12 8 C10.865625 7.855625 9.73125 7.71125 8.5625 7.5625 C7.386875 7.376875 6.21125 7.19125 5 7 C4.34 6.01 3.68 5.02 3 4 C3.33 3.34 3.66 2.68 4 2 C2.68 1.34 1.36 0.68 0 0 Z " fill="#174966" transform="translate(441,357)"/>
<path d="M0 0 C1.20462891 -0.02126953 1.20462891 -0.02126953 2.43359375 -0.04296875 C4.5625 0.1875 4.5625 0.1875 6.5625 2.1875 C6.2325 3.1775 5.9025 4.1675 5.5625 5.1875 C2.5925 5.1875 -0.3775 5.1875 -3.4375 5.1875 C-4.0975 3.8675 -4.7575 2.5475 -5.4375 1.1875 C-3.84855928 -0.40144072 -2.18948576 0.01751589 0 0 Z " fill="#084060" transform="translate(143.4375,359.8125)"/>
<path d="M0 0 C1.19997482 3.59992445 0.68836502 4.76150756 -0.43359375 8.32421875 C-0.75263672 9.35224609 -1.07167969 10.38027344 -1.40039062 11.43945312 C-1.74263672 12.51130859 -2.08488281 13.58316406 -2.4375 14.6875 C-2.77587891 15.77095703 -3.11425781 16.85441406 -3.46289062 17.97070312 C-4.30081105 20.64968814 -5.14679102 23.3258526 -6 26 C-7.07880981 22.25069379 -6.77459419 19.60368621 -6.0625 15.75 C-5.86785156 14.67234375 -5.67320312 13.5946875 -5.47265625 12.484375 C-5.31667969 11.66453125 -5.16070312 10.8446875 -5 10 C-4.34 10 -3.68 10 -3 10 C-2.814375 8.081875 -2.814375 8.081875 -2.625 6.125 C-2.25 2.25 -2.25 2.25 0 0 Z " fill="#3DAFB1" transform="translate(234,173)"/>
<path d="M0 0 C0.33 0 0.66 0 1 0 C1.33 6.6 1.66 13.2 2 20 C-1.3 19.34 -4.6 18.68 -8 18 C-6 16 -6 16 -1 14 C-0.67 9.38 -0.34 4.76 0 0 Z " fill="#0D425D" transform="translate(300,116)"/>
<path d="M0 0 C0.66 0.33 1.32 0.66 2 1 C2.625 3.0625 2.625 3.0625 3 5 C4.32 5 5.64 5 7 5 C7 6.65 7 8.3 7 10 C6.01 10.33 5.02 10.66 4 11 C4 9.68 4 8.36 4 7 C1.24616077 8.37691962 0.48516899 10.36720042 -1 13 C-2.24270671 10.51458657 -1.95365685 9.23584621 -1.625 6.5 C-1.53476563 5.7059375 -1.44453125 4.911875 -1.3515625 4.09375 C-1 2 -1 2 0 0 Z " fill="#0B3B56" transform="translate(67,376)"/>
<path d="M0 0 C3.63 0 7.26 0 11 0 C12.65 2.97 14.3 5.94 16 9 C14.35 8.67 12.7 8.34 11 8 C10.54625 7.175 10.0925 6.35 9.625 5.5 C9.08875 4.675 8.5525 3.85 8 3 C4.43230448 2.26393501 4.43230448 2.26393501 1 2 C0.67 1.34 0.34 0.68 0 0 Z " fill="#25475A" transform="translate(240,358)"/>
<path d="M0 0 C2.02910711 0.25327449 4.04962145 0.57730068 6.0625 0.9375 C7.16722656 1.13214844 8.27195312 1.32679688 9.41015625 1.52734375 C10.69212891 1.76130859 10.69212891 1.76130859 12 2 C12.33 2.99 12.66 3.98 13 5 C8.71 5 4.42 5 0 5 C-0.33 3.68 -0.66 2.36 -1 1 C-0.67 0.67 -0.34 0.34 0 0 Z " fill="#1B3D50" transform="translate(87,402)"/>
<path d="M0 0 C5.96193344 2.92013066 10.12962539 6.56500587 14 12 C14 12.66 14 13.32 14 14 C13.01 14.33 12.02 14.66 11 15 C10.71125 14.2575 10.4225 13.515 10.125 12.75 C9.17697356 10.43260203 8.15154089 8.22082885 7 6 C5.35 6 3.7 6 2 6 C1.34 4.02 0.68 2.04 0 0 Z " fill="#3AAEB3" transform="translate(305,145)"/>
<path d="M0 0 C0 0.99 0 1.98 0 3 C-0.87011719 3.18175781 -0.87011719 3.18175781 -1.7578125 3.3671875 C-6.28028442 4.33735474 -10.63750966 5.43397783 -15 7 C-15 7.66 -15 8.32 -15 9 C-17.375 10.6875 -17.375 10.6875 -20 12 C-20.66 11.67 -21.32 11.34 -22 11 C-15.72990171 5.60832128 -8.6403832 0 0 0 Z " fill="#47B0B5" transform="translate(208,140)"/>
<path d="M0 0 C1 2 1 2 0.0625 5.125 C-0.288125 6.07375 -0.63875 7.0225 -1 8 C-1.66 8 -2.32 8 -3 8 C-3.226875 8.94875 -3.45375 9.8975 -3.6875 10.875 C-5 14 -5 14 -7.625 15.375 C-8.40875 15.58125 -9.1925 15.7875 -10 16 C-6.99935973 10.36901124 -3.81213639 5.11915459 0 0 Z " fill="#28495B" transform="translate(344,384)"/>
<path d="M0 0 C0.99 0 1.98 0 3 0 C1.63513017 3.1528493 0.16240741 4.97025502 -2.5 7.125 C-4.4295694 8.70299531 -6.23458294 10.23458294 -8 12 C-8.33 10.68 -8.66 9.36 -9 8 C-8.01 8 -7.02 8 -6 8 C-6 7.01 -6 6.02 -6 5 C-5.34 5 -4.68 5 -4 5 C-3.67 4.01 -3.34 3.02 -3 2 C-2.01 2 -1.02 2 0 2 C0 1.34 0 0.68 0 0 Z " fill="#39AFB7" transform="translate(289,233)"/>
<path d="M0 0 C2.47385671 2.47385671 2.28571102 3.97504228 2.32226562 7.36132812 C2.31743164 8.3890332 2.31743164 8.3890332 2.3125 9.4375 C2.32861328 10.11876953 2.34472656 10.80003906 2.36132812 11.50195312 C2.36328125 13.49609375 2.36328125 13.49609375 2 17 C1.01 17.99 0.02 18.98 -1 20 C-0.67 13.4 -0.34 6.8 0 0 Z " fill="#CFF5F6" transform="translate(325,173)"/>
<path d="M0 0 C3.63 0 7.26 0 11 0 C10.34 1.32 9.68 2.64 9 4 C8.29875 3.814375 7.5975 3.62875 6.875 3.4375 C3.66111302 2.94843024 1.16439664 3.33768442 -2 4 C-1.34 2.68 -0.68 1.36 0 0 Z " fill="#1E404E" transform="translate(362,358)"/>
<path d="M0 0 C3.63 0 7.26 0 11 0 C10.67 0.99 10.34 1.98 10 3 C7.03 3 4.06 3 1 3 C0.67 4.65 0.34 6.3 0 8 C-1.125 6.25 -1.125 6.25 -2 4 C-1.34 2.68 -0.68 1.36 0 0 Z " fill="#244351" transform="translate(103,358)"/>
<path d="M0 0 C5.94 0 11.88 0 18 0 C18 2.97 18 5.94 18 9 C17.34 8.67 16.68 8.34 16 8 C15.67 6.02 15.34 4.04 15 2 C10.05 1.67 5.1 1.34 0 1 C0 0.67 0 0.34 0 0 Z " fill="#2A4655" transform="translate(132,378)"/>
<path d="M0 0 C0 2.97 0 5.94 0 9 C-0.99 8.67 -1.98 8.34 -3 8 C-3 6.68 -3 5.36 -3 4 C-6.3 3.34 -9.6 2.68 -13 2 C-13 1.67 -13 1.34 -13 1 C-11.02087544 0.83283412 -9.04169915 0.66628044 -7.0625 0.5 C-5.40927734 0.36078125 -5.40927734 0.36078125 -3.72265625 0.21875 C-1 0 -1 0 0 0 Z " fill="#2C4E62" transform="translate(324,398)"/>
<path d="M0 0 C0.66 0 1.32 0 2 0 C0.6744419 3.62276315 -0.94346955 6.63505348 -3.125 9.8125 C-3.66382813 10.60269531 -4.20265625 11.39289063 -4.7578125 12.20703125 C-5.37269531 13.09455078 -5.37269531 13.09455078 -6 14 C-7.33332095 11.3333581 -6.67102033 9.83319697 -6 7 C-5.01 7 -4.02 7 -3 7 C-3 5.35 -3 3.7 -3 2 C-2.34 2 -1.68 2 -1 2 C-0.67 1.34 -0.34 0.68 0 0 Z " fill="#193D52" transform="translate(367,364)"/>
<path d="M0 0 C0.66 1.32 1.32 2.64 2 4 C1.01 4 0.02 4 -1 4 C-3.03165952 8.33420699 -3.52060632 12.28596212 -4 17 C-4.33 17 -4.66 17 -5 17 C-5.76681614 7.42331839 -5.76681614 7.42331839 -3.88671875 3.93359375 C-2.5 2.3125 -2.5 2.3125 0 0 Z " fill="#163A4C" transform="translate(434,360)"/>
<path d="M0 0 C2.69721986 3.25526534 4.8014609 6.33576817 7 10 C3.04 10 -0.92 10 -5 10 C-5 9.67 -5 9.34 -5 9 C-3.02 8.67 -1.04 8.34 1 8 C0.67 5.36 0.34 2.72 0 0 Z " fill="#1F3A4B" transform="translate(367,397)"/>
<path d="M0 0 C0.33 0.66 0.66 1.32 1 2 C1.99 1.67 2.98 1.34 4 1 C4.33 1.99 4.66 2.98 5 4 C4.38125 4.226875 3.7625 4.45375 3.125 4.6875 C0.38589791 6.37929835 -0.05024472 7.99244161 -1 11 C-1.33 11 -1.66 11 -2 11 C-1.125 3.375 -1.125 3.375 0 0 Z " fill="#103D55" transform="translate(101,364)"/>
<path d="M0 0 C-1.28519565 2.86697492 -2.57129254 4.97607712 -5 7 C-5.66 7 -6.32 7 -7 7 C-7.125 2.25 -7.125 2.25 -6 0 C-3 -1 -3 -1 0 0 Z " fill="#113C53" transform="translate(297,300)"/>
<path d="M0 0 C-1.56126332 3.83219177 -4.02866925 6.17361222 -7 9 C-7.598125 9.598125 -8.19625 10.19625 -8.8125 10.8125 C-9.204375 11.204375 -9.59625 11.59625 -10 12 C-10.99 11.67 -11.98 11.34 -13 11 C-11.37660195 9.29115995 -9.70680947 7.62553283 -8 6 C-7.34 6 -6.68 6 -6 6 C-6 5.34 -6 4.68 -6 4 C-2.47058824 0 -2.47058824 0 0 0 Z " fill="#DEF9FA" transform="translate(282,245)"/>
<path d="M0 0 C3.1857029 1.39330742 5.19822217 3.02896738 7.5625 5.5625 C9.8343494 7.99626295 10.76779382 8.92259794 14 10 C14.6875 12.0625 14.6875 12.0625 15 14 C10.94772191 12.38873705 8.23778153 9.49978002 5.25 6.4375 C4.74339844 5.93025391 4.23679688 5.42300781 3.71484375 4.90039062 C0 1.14048812 0 1.14048812 0 0 Z " fill="#3DACB0" transform="translate(214,239)"/>
<path d="M0 0 C0.33 0 0.66 0 1 0 C1 11.375 1 11.375 -1 15 C-1.99 14.01 -2.98 13.02 -4 12 C-3.34 12 -2.68 12 -2 12 C-1.855625 10.7625 -1.71125 9.525 -1.5625 8.25 C-1.21311498 5.43495501 -0.79620634 2.7298503 0 0 Z " fill="#274E63" transform="translate(65,380)"/>
<path d="M0 0 C1.32 0.66 2.64 1.32 4 2 C3.40072174 5.35595828 2.15377564 7.37801226 0 10 C-2.475 9.01 -2.475 9.01 -5 8 C-5 7.67 -5 7.34 -5 7 C-3.02 7 -1.04 7 1 7 C0.67 4.69 0.34 2.38 0 0 Z " fill="#21414F" transform="translate(456,360)"/>
<path d="M0 0 C0.99 0.33 1.98 0.66 3 1 C3.33 2.65 3.66 4.3 4 6 C5.32 6.33 6.64 6.66 8 7 C8 7.66 8 8.32 8 9 C9.32 9.33 10.64 9.66 12 10 C11.01 10.66 10.02 11.32 9 12 C5.09843342 8.96544821 2.20424008 6.53093795 0 2 C0 1.34 0 0.68 0 0 Z " fill="#214454" transform="translate(201,297)"/>
<path d="M0 0 C0.33 0 0.66 0 1 0 C1.24927162 2.58281438 1.47499275 5.16412228 1.6875 7.75 C1.76033203 8.47960937 1.83316406 9.20921875 1.90820312 9.9609375 C2.17234629 13.37926075 2.28508387 15.51558309 0.51953125 18.515625 C0.01808594 19.00546875 -0.48335938 19.4953125 -1 20 C-1.33 17.69 -1.66 15.38 -2 13 C-1.67 13 -1.34 13 -1 13 C-0.67 8.71 -0.34 4.42 0 0 Z " fill="#16435F" transform="translate(290,273)"/>
<path d="M0 0 C0.66 0.33 1.32 0.66 2 1 C0.56665422 2.62866544 -0.87182979 4.25280994 -2.3125 5.875 C-3.51326172 7.23238281 -3.51326172 7.23238281 -4.73828125 8.6171875 C-7 11 -7 11 -10 13 C-8.125 8.25 -8.125 8.25 -7 6 C-6.01 6 -5.02 6 -4 6 C-3.566875 4.7934375 -3.566875 4.7934375 -3.125 3.5625 C-2 1 -2 1 0 0 Z " fill="#3EACB0" transform="translate(308,214)"/>
<path d="M0 0 C1 3 1 3 0 6 C-1.98 6.33 -3.96 6.66 -6 7 C-5.49396008 4.83125748 -5.00016187 3.00032373 -4 1 C-1.9375 0.375 -1.9375 0.375 0 0 Z " fill="#044163" transform="translate(411,397)"/>
<path d="M0 0 C0.99 0 1.98 0 3 0 C3 0.66 3 1.32 3 2 C3.99 2.33 4.98 2.66 6 3 C6 4.65 6 6.3 6 8 C6.66 8 7.32 8 8 8 C8.33 8.99 8.66 9.98 9 11 C8.34 11.66 7.68 12.32 7 13 C6.20724852 11.5839401 5.41584688 10.16712447 4.625 8.75 C3.96371094 7.56664062 3.96371094 7.56664062 3.2890625 6.359375 C2.14252177 4.26085803 1.05350448 2.1463923 0 0 Z " fill="#1D4056" transform="translate(338,370)"/>
<path d="M0 0 C0.33 0 0.66 0 1 0 C0.67 7.59 0.34 15.18 0 23 C-0.33 23 -0.66 23 -1 23 C-1.16834933 21.22932584 -1.33461909 19.45845388 -1.5 17.6875 C-1.5928125 16.70136719 -1.685625 15.71523437 -1.78125 14.69921875 C-2.08293985 10.97658144 -1.83916944 7.93141821 -1 4.3125 C-0.814375 3.50425781 -0.62875 2.69601563 -0.4375 1.86328125 C-0.2209375 0.94095703 -0.2209375 0.94095703 0 0 Z " fill="#1A4960" transform="translate(301,87)"/>
<path d="M0 0 C0.33 0 0.66 0 1 0 C1 1.98 1 3.96 1 6 C-2.3 6.33 -5.6 6.66 -9 7 C-9.99 5.35 -10.98 3.7 -12 2 C-11.01 1.67 -10.02 1.34 -9 1 C-8.34 1.99 -7.68 2.98 -7 4 C-3.91634129 4.2502157 -3.91634129 4.2502157 -1 4 C-0.67 2.68 -0.34 1.36 0 0 Z " fill="#1C4055" transform="translate(279,400)"/>
<path d="M0 0 C0.33 0 0.66 0 1 0 C1.02505615 0.59014893 1.0501123 1.18029785 1.07592773 1.78833008 C1.19200052 4.46326814 1.31467572 7.1378638 1.4375 9.8125 C1.47681641 10.74126953 1.51613281 11.67003906 1.55664062 12.62695312 C1.59853516 13.51962891 1.64042969 14.41230469 1.68359375 15.33203125 C1.72025146 16.15421143 1.75690918 16.9763916 1.79467773 17.82348633 C1.93427772 20.17905178 1.93427772 20.17905178 3 23 C2.01 23 1.02 23 0 23 C0 15.41 0 7.82 0 0 Z " fill="#1B3D4F" transform="translate(292,384)"/>
<path d="M0 0 C1.32 1.65 2.64 3.3 4 5 C3.67 5.33 3.34 5.66 3 6 C3.99 6.33 4.98 6.66 6 7 C6.6875 9.0625 6.6875 9.0625 7 11 C3.20764006 9.51014431 1.19434113 7.41341953 -1 4 C-0.75 1.6875 -0.75 1.6875 0 0 Z " fill="#1D4258" transform="translate(430,373)"/>
<path d="M0 0 C2 1 2 1 3.125 4.0625 C3.41375 5.031875 3.7025 6.00125 4 7 C4.433125 6.505 4.86625 6.01 5.3125 5.5 C7 4 7 4 10 4 C9.34 5.32 8.68 6.64 8 8 C5.6875 8.25 5.6875 8.25 3 8 C1.1875 6.25 1.1875 6.25 0 4 C0 2.68 0 1.36 0 0 Z " fill="#D6F9F9" transform="translate(249,222)"/>
<path d="M0 0 C2 1 2 1 3.125 3.0625 C4.2583306 6.86725273 4.13434296 10.0368828 4 14 C3.67 14 3.34 14 3 14 C3 12.35 3 10.7 3 9 C2.34 9 1.68 9 1 9 C-0.4783226 6.04335481 -0.06032783 3.25770263 0 0 Z " fill="#1D4359" transform="translate(368,152)"/>
<path d="M0 0 C0.66 0.66 1.32 1.32 2 2 C1.8125 4 1.8125 4 1 6 C-2 8 -2 8 -5 8 C-3.62845496 5.04590299 -2.01136276 2.55991624 0 0 Z " fill="#20465A" transform="translate(308,228)"/>
<path d="M0 0 C3 1 3 1 5 4 C4.96856707 6.73990408 4.44521663 9.28417854 4 12 C1.78600697 8.20458337 0.99019802 4.24370579 0 0 Z " fill="#274B5E" transform="translate(47,378)"/>
<path d="M0 0 C3.3 0 6.6 0 10 0 C9.67 0.99 9.34 1.98 9 3 C6.36 3 3.72 3 1 3 C0.67 2.01 0.34 1.02 0 0 Z " fill="#1E3F4F" transform="translate(410,358)"/>
<path d="M0 0 C0.66 0 1.32 0 2 0 C2.66 2.97 3.32 5.94 4 9 C1.03 8.505 1.03 8.505 -2 8 C-1.34 5.36 -0.68 2.72 0 0 Z " fill="#58B5B6" transform="translate(238,190)"/>
<path d="M0 0 C0.66 0.33 1.32 0.66 2 1 C0.71937515 2.7074998 -0.61767557 4.37373596 -2 6 C-2.66 6 -3.32 6 -4 6 C-4.33 6.66 -4.66 7.32 -5 8 C-5.66 7.67 -6.32 7.34 -7 7 C-5.55609075 3.19333016 -3.65047197 1.73397418 0 0 Z " fill="#184054" transform="translate(142,142)"/>
<path d="M0 0 C2.60271414 2.60271414 3.8883424 4.65117616 4.1953125 8.359375 C4.16050781 9.54273438 4.16050781 9.54273438 4.125 10.75 C4.10695313 11.54921875 4.08890625 12.3484375 4.0703125 13.171875 C4.03550781 14.07679688 4.03550781 14.07679688 4 15 C1.4502185 10.11470435 0 5.54842611 0 0 Z " fill="#183B4D" transform="translate(82,386)"/>
<path d="M0 0 C2.56695636 0.39491636 4.67123994 0.83561997 7 2 C6.67 3.65 6.34 5.3 6 7 C3.56070254 5.07423885 1.19909405 3.19909405 -1 1 C-0.67 0.67 -0.34 0.34 0 0 Z " fill="#1D4559" transform="translate(281,81)"/>
<path d="M0 0 C4.21422242 2.88341534 5.76075855 5.04303419 7 10 C6.01 10 5.02 10 4 10 C0 3.375 0 3.375 0 0 Z " fill="#1B4256" transform="translate(259,387)"/>
<path d="M0 0 C1.88391785 3.26545761 2.49287967 6.28111761 3 10 C2.01 10.495 2.01 10.495 1 11 C1 10.01 1 9.02 1 8 C0.34 8 -0.32 8 -1 8 C-1.125 2.25 -1.125 2.25 0 0 Z " fill="#2C4E62" transform="translate(57,376)"/>
<path d="M0 0 C1 3 1 3 0 6 C-2.89558441 7.4477922 -4.74188938 8 -8 8 C-8 7.34 -8 6.68 -8 6 C-6.20963542 5.0234375 -4.41927083 4.046875 -2.62890625 3.0703125 C-0.83381685 2.08589976 -0.83381685 2.08589976 0 0 Z " fill="#1E4758" transform="translate(286,292)"/>
<path d="M0 0 C2 0 4 0 6 0 C6.66 2.64 7.32 5.28 8 8 C7.34 8 6.68 8 6 8 C4.4921875 6.25 4.4921875 6.25 2.875 4 C2.33617187 3.2575 1.79734375 2.515 1.2421875 1.75 C0.62730469 0.88375 0.62730469 0.88375 0 0 Z " fill="#2EADB1" transform="translate(200,225)"/>
<path d="M0 0 C1.57554035 2.88628401 2.46276373 5.53342384 3.125 8.75 C3.29257813 9.54921875 3.46015625 10.3484375 3.6328125 11.171875 C3.81457031 12.07679688 3.81457031 12.07679688 4 13 C3.01 13.495 3.01 13.495 2 14 C0.02905192 9.07262981 -0.1799928 5.21979128 0 0 Z " fill="#304F62" transform="translate(86,369)"/>
<path d="M0 0 C1.4540625 0.0309375 1.4540625 0.0309375 2.9375 0.0625 C3.2675 1.7125 3.5975 3.3625 3.9375 5.0625 C3.31875 4.5675 2.7 4.0725 2.0625 3.5625 C0.09869096 1.87027227 0.09869096 1.87027227 -2.0625 2.0625 C-2.3925 4.3725 -2.7225 6.6825 -3.0625 9.0625 C-3.3925 9.0625 -3.7225 9.0625 -4.0625 9.0625 C-4.16015625 2.91015625 -4.16015625 2.91015625 -4.0625 1.0625 C-3.0625 0.0625 -3.0625 0.0625 0 0 Z " fill="#143E55" transform="translate(385.0625,358.9375)"/>
<path d="M0 0 C0 0.99 0 1.98 0 3 C-0.66 3 -1.32 3 -2 3 C-2.33 4.32 -2.66 5.64 -3 7 C-4.32 7 -5.64 7 -7 7 C-7 5 -7 5 -4.625 2.375 C-2 0 -2 0 0 0 Z " fill="#174054" transform="translate(359,220)"/>
<path d="M0 0 C0.66 1.32 1.32 2.64 2 4 C-1.3 3.34 -4.6 2.68 -8 2 C-5.14066998 -0.85933002 -3.8625627 -1.2875209 0 0 Z " fill="#274C5F" transform="translate(300,132)"/>
<path d="M0 0 C3.2542015 2.83430453 4.5206753 4.68607774 5 9 C4.01 9 3.02 9 2 9 C0.50178941 5.62902617 0 3.79557881 0 0 Z " fill="#1F4456" transform="translate(362,389)"/>
<path d="M0 0 C3 1 3 1 4 3 C4.06996014 4.70702735 4.08440154 6.41668003 4.0625 8.125 C4.05347656 9.03507812 4.04445313 9.94515625 4.03515625 10.8828125 C4.02355469 11.58148438 4.01195312 12.28015625 4 13 C3.67 13 3.34 13 3 13 C2.8046875 10.94921875 2.609375 8.8984375 2.4140625 6.84765625 C2.27742188 6.23792969 2.14078125 5.62820313 2 5 C1.34 4.67 0.68 4.34 0 4 C0 2.68 0 1.36 0 0 Z " fill="#345365" transform="translate(458,385)"/>
<path d="M0 0 C0.66 0.99 1.32 1.98 2 3 C1.25 6.625 1.25 6.625 0 10 C-0.99 10.495 -0.99 10.495 -2 11 C-2.33 9.68 -2.66 8.36 -3 7 C-2.34 7 -1.68 7 -1 7 C-0.67 4.69 -0.34 2.38 0 0 Z " fill="#264A5F" transform="translate(72,384)"/>
<path d="M0 0 C1.65 0 3.3 0 5 0 C2.19195732 2.96404505 -0.18315774 5.44499019 -4 7 C-3.6875 5.125 -3.6875 5.125 -3 3 C-2.01 2.34 -1.02 1.68 0 1 C0 0.67 0 0.34 0 0 Z " fill="#3DACB4" transform="translate(271,250)"/>
<path d="M0 0 C-2.93828597 2.50298434 -5.17902761 3.46930939 -9 4 C-9 3.01 -9 2.02 -9 1 C-5.57367167 -0.61798838 -3.61944899 -1.34053666 0 0 Z " fill="#1F4257" transform="translate(361,236)"/>
<path d="M0 0 C2.125 0.9375 2.125 0.9375 4 2 C3 4 3 4 -0.0625 5.125 C-1.031875 5.41375 -2.00125 5.7025 -3 6 C-2.625 3.5625 -2.625 3.5625 -2 1 C-1.34 0.67 -0.68 0.34 0 0 Z " fill="#E8FDFD" transform="translate(239,170)"/>
<path d="M0 0 C1.96301592 3.50538557 2.95902388 7.13351728 4 11 C3.01 10.67 2.02 10.34 1 10 C0.234375 7.96875 0.234375 7.96875 -0.25 5.5 C-0.42015625 4.6853125 -0.5903125 3.870625 -0.765625 3.03125 C-0.84296875 2.3609375 -0.9203125 1.690625 -1 1 C-0.67 0.67 -0.34 0.34 0 0 Z " fill="#2C4E64" transform="translate(90,383)"/>
<path d="M0 0 C2.64 0 5.28 0 8 0 C8.33 0.99 8.66 1.98 9 3 C8.34 3.66 7.68 4.32 7 5 C3.535 3.02 3.535 3.02 0 1 C0 0.67 0 0.34 0 0 Z " fill="#1D4358" transform="translate(442,385)"/>
<path d="M0 0 C3.63 0 7.26 0 11 0 C10.67 0.99 10.34 1.98 10 3 C7.36 2.34 4.72 1.68 2 1 C2 1.99 2 2.98 2 4 C1.34 4 0.68 4 0 4 C0 2.68 0 1.36 0 0 Z " fill="#2D434E" transform="translate(42,358)"/>
<path d="M0 0 C3.465 1.485 3.465 1.485 7 3 C6.67 3.66 6.34 4.32 6 5 C6.66 5.66 7.32 6.32 8 7 C6.35 6.67 4.7 6.34 3 6 C3 5.34 3 4.68 3 4 C2.01 3.67 1.02 3.34 0 3 C0 2.01 0 1.02 0 0 Z " fill="#1F475D" transform="translate(215,295)"/>
<path d="M0 0 C2.475 0.99 2.475 0.99 5 2 C4.4225 2.226875 3.845 2.45375 3.25 2.6875 C0.4336339 4.33038023 -1.08077114 6.39533227 -3 9 C-3 7.02 -3 5.04 -3 3 C-2.01 3 -1.02 3 0 3 C0 2.01 0 1.02 0 0 Z " fill="#48B6B6" transform="translate(266,182)"/>
<path d="M0 0 C3.96 0 7.92 0 12 0 C12 0.33 12 0.66 12 1 C9.69 1 7.38 1 5 1 C5 1.99 5 2.98 5 4 C1.125 2.25 1.125 2.25 0 0 Z " fill="#254559" transform="translate(316,141)"/>
<path d="M0 0 C2 3 2 3 1.7578125 5.04296875 C1.171875 7.02864583 0.5859375 9.01432292 0 11 C-1.84651134 7.88401212 -2.38079379 5.61754103 -2 2 C-1.34 1.34 -0.68 0.68 0 0 Z " fill="#224961" transform="translate(75,374)"/>
<path d="M0 0 C0.33 0.66 0.66 1.32 1 2 C-0.98 4.31 -2.96 6.62 -5 9 C-5.66 8.67 -6.32 8.34 -7 8 C-4.69 5.36 -2.38 2.72 0 0 Z " fill="#D8F7F8" transform="translate(301,224)"/>
<path d="M0 0 C0.66 0 1.32 0 2 0 C2.66 0.99 3.32 1.98 4 3 C6.80561762 3.28056176 8.46578263 3.26710868 11 2 C10.67 2.99 10.34 3.98 10 5 C7.36 5 4.72 5 2 5 C1.34 3.35 0.68 1.7 0 0 Z " fill="#32ADA9" transform="translate(248,226)"/>
<path d="M0 0 C3.63 0 7.26 0 11 0 C11 0.33 11 0.66 11 1 C9.7625 1.12375 8.525 1.2475 7.25 1.375 C4.1237803 1.75746305 1.71120763 2.30549523 -1 4 C-0.67 2.68 -0.34 1.36 0 0 Z " fill="#25B3B9" transform="translate(190,209)"/>
<path d="M0 0 C0.66 0.33 1.32 0.66 2 1 C-1.96 4.465 -1.96 4.465 -6 8 C-6.33 7.34 -6.66 6.68 -7 6 C-2.25 1.125 -2.25 1.125 0 0 Z " fill="#E0ECF0" transform="translate(220,82)"/>
<path d="M0 0 C0.66 0 1.32 0 2 0 C2.36256858 1.4562672 2.71479793 2.91511185 3.0625 4.375 C3.35833984 5.59316406 3.35833984 5.59316406 3.66015625 6.8359375 C4 9 4 9 3 11 C2.34 11 1.68 11 1 11 C1.03255208 9.01432292 1.06510417 7.02864583 1.09765625 5.04296875 C1.08263217 2.79694539 1.08263217 2.79694539 0 0 Z " fill="#0F384E" transform="translate(450,388)"/>
<path d="M0 0 C1 2 1 2 0.25 5.0625 C-0.1625 6.031875 -0.575 7.00125 -1 8 C-1.99 8.33 -2.98 8.66 -4 9 C-3.46930939 5.17902761 -2.50298434 2.93828597 0 0 Z " fill="#1D4054" transform="translate(344,384)"/>
<path d="M0 0 C0.66 0 1.32 0 2 0 C2.6875 2.3125 2.6875 2.3125 3 5 C1.5625 6.8125 1.5625 6.8125 0 8 C-0.38063221 5.6739143 -0.71269945 3.33944736 -1 1 C-0.67 0.67 -0.34 0.34 0 0 Z " fill="#133C54" transform="translate(98,376)"/>
<path d="M0 0 C1.9375 0.75 1.9375 0.75 4 2 C4.75 4.125 4.75 4.125 5 6 C0.125 4.25 0.125 4.25 -1 2 C-0.67 1.34 -0.34 0.68 0 0 Z " fill="#133F51" transform="translate(210,290)"/>
<path d="M0 0 C1.32 1.32 2.64 2.64 4 4 C2.02 4.66 0.04 5.32 -2 6 C-2 4.68 -2 3.36 -2 2 C-1.34 2 -0.68 2 0 2 C0 1.34 0 0.68 0 0 Z " fill="#18495F" transform="translate(201,238)"/>
<path d="M0 0 C1.65 0.33 3.3 0.66 5 1 C5 1.99 5 2.98 5 4 C3.35 4.33 1.7 4.66 0 5 C-0.33 4.34 -0.66 3.68 -1 3 C-0.67 2.01 -0.34 1.02 0 0 Z " fill="#114765" transform="translate(321,142)"/>
<path d="M0 0 C3.3 0.33 6.6 0.66 10 1 C10 1.33 10 1.66 10 2 C6.7 2.66 3.4 3.32 0 4 C0 2.68 0 1.36 0 0 Z " fill="#355467" transform="translate(199,132)"/>
<path d="M0 0 C0.66 0 1.32 0 2 0 C0.54744301 3.82946843 -1.42895561 5.12050295 -5 7 C-5 6.01 -5 5.02 -5 4 C-3.35 3.34 -1.7 2.68 0 2 C0 1.34 0 0.68 0 0 Z " fill="#214150" transform="translate(415,399)"/>
<path d="M0 0 C0.66 0.33 1.32 0.66 2 1 C0.35 3.64 -1.3 6.28 -3 9 C-3.33 7.68 -3.66 6.36 -4 5 C-2.0625 2.25 -2.0625 2.25 0 0 Z " fill="#214253" transform="translate(346,396)"/>
<path d="M0 0 C0.33 0 0.66 0 1 0 C1 3.3 1 6.6 1 10 C-0.32 8.35 -1.64 6.7 -3 5 C-2.01 4.67 -1.02 4.34 0 4 C0 2.68 0 1.36 0 0 Z " fill="#103E59" transform="translate(418,361)"/>
<path d="M0 0 C3.96 0 7.92 0 12 0 C12 0.33 12 0.66 12 1 C9.03 1 6.06 1 3 1 C2.67 1.99 2.34 2.98 2 4 C1.34 2.68 0.68 1.36 0 0 Z " fill="#304551" transform="translate(331,358)"/>
<path d="M0 0 C0 0.99 0 1.98 0 3 C-0.66 3 -1.32 3 -2 3 C-2 3.66 -2 4.32 -2 5 C-2.99 5.33 -3.98 5.66 -5 6 C-4.625 3.5625 -4.625 3.5625 -4 1 C-2 0 -2 0 0 0 Z " fill="#214659" transform="translate(366,230)"/>
<path d="M0 0 C0.33 0.99 0.66 1.98 1 3 C0.67 3.66 0.34 4.32 0 5 C-0.66 5 -1.32 5 -2 5 C-2 5.66 -2 6.32 -2 7 C-2.99 7.33 -3.98 7.66 -5 8 C-3.8141763 4.62496331 -2.72426311 2.35277269 0 0 Z " fill="#47B2B8" transform="translate(185,152)"/>
<path d="M0 0 C1.485 0.99 1.485 0.99 3 2 C3.1875 5.125 3.1875 5.125 3 8 C2.34 7.67 1.68 7.34 1 7 C1 6.34 1 5.68 1 5 C0.34 4.67 -0.32 4.34 -1 4 C-0.67 2.68 -0.34 1.36 0 0 Z " fill="#133D54" transform="translate(298,83)"/>
<path d="M0 0 C-1 1 -1 1 -2.84765625 1.09765625 C-4.8984375 1.06510417 -6.94921875 1.03255208 -9 1 C-9 0.34 -9 -0.32 -9 -1 C-3.375 -2.25 -3.375 -2.25 0 0 Z " fill="#174055" transform="translate(283,70)"/>
<path d="M0 0 C6.75 0.875 6.75 0.875 9 2 C9 2.66 9 3.32 9 4 C2.25 2.25 2.25 2.25 0 0 Z " fill="#2A4C5B" transform="translate(387,404)"/>
<path d="M0 0 C0.33 0 0.66 0 1 0 C1.1953125 6.0546875 1.1953125 6.0546875 1 8 C0.34 8.66 -0.32 9.32 -1 10 C-1.9765625 3.9453125 -1.9765625 3.9453125 -2 2 C-1.34 1.34 -0.68 0.68 0 0 Z " fill="#184059" transform="translate(291,246)"/>
<path d="M0 0 C0.66 0 1.32 0 2 0 C2 1.32 2 2.64 2 4 C2.99 4 3.98 4 5 4 C4.67 5.32 4.34 6.64 4 8 C3.34 8 2.68 8 2 8 C1.34 5.36 0.68 2.72 0 0 Z " fill="#5DB1B3" transform="translate(252,204)"/>
<path d="M0 0 C0.66 0.33 1.32 0.66 2 1 C2 2.98 2 4.96 2 7 C0.68 6.34 -0.64 5.68 -2 5 C-1.34 3.35 -0.68 1.7 0 0 Z " fill="#1F435A" transform="translate(201,81)"/>
</svg>
